<mxfile modified="2021-02-25T12:32:55.171Z" host="app.diagrams.net" agent="5.0 (X11; Linux x86_64) AppleWebKit/537.36 (KHTML, like Gecko) Chrome/85.0.4183.83 Safari/537.36" etag="0dT7nUX4NJ0zxm0QNiFl" version="14.4.3" type="github">
  <diagram id="f106602c-feb2-e66a-4537-3a34d633f6aa" name="Page-1">
    <mxGraphModel dx="1959" dy="430" grid="1" gridSize="10" guides="1" tooltips="1" connect="1" arrows="1" fold="1" page="1" pageScale="1" pageWidth="1169" pageHeight="827" background="#ffffff" math="0" shadow="0">
      <root>
        <mxCell id="0" />
        <mxCell id="1" parent="0" />
        <mxCell id="14" value="&lt;b&gt;Yantram App Engine&lt;/b&gt;" style="fillColor=#F6F6F6;strokeColor=none;shadow=0;gradientColor=none;fontSize=14;align=left;spacing=10;fontColor=#717171;9E9E9E;verticalAlign=top;spacingTop=-4;fontStyle=0;spacingLeft=40;html=1;" parent="1" vertex="1">
          <mxGeometry x="209.5" y="220" width="610" height="580" as="geometry" />
        </mxCell>
        <mxCell id="wHmKWYzwHDe0dpPs2I7R-599" value="" style="strokeColor=#dddddd;shadow=1;strokeWidth=1;rounded=1;absoluteArcSize=1;arcSize=2;" vertex="1" parent="14">
          <mxGeometry x="50" y="95" width="200" height="70" as="geometry" />
        </mxCell>
        <mxCell id="wHmKWYzwHDe0dpPs2I7R-600" value="&lt;font color=&quot;#000000&quot;&gt;Application Configuration&lt;/font&gt;&lt;br&gt;&amp;nbsp; &amp;nbsp;Helm Chart&lt;br&gt;&amp;nbsp; &amp;nbsp;Kubernetes Deployment&lt;br&gt;&amp;nbsp; &amp;nbsp;Grafana Configurations" style="dashed=0;connectable=0;html=1;fillColor=#5184F3;strokeColor=none;shape=mxgraph.gcp2.container_engine;part=1;labelPosition=right;verticalLabelPosition=middle;align=left;verticalAlign=top;spacingLeft=5;fontColor=#999999;fontSize=12;spacingTop=-8;" vertex="1" parent="wHmKWYzwHDe0dpPs2I7R-599">
          <mxGeometry width="44" height="39" relative="1" as="geometry">
            <mxPoint x="5" y="7" as="offset" />
          </mxGeometry>
        </mxCell>
        <mxCell id="wHmKWYzwHDe0dpPs2I7R-601" value="" style="shape=image;verticalLabelPosition=bottom;verticalAlign=top;imageAspect=0;aspect=fixed;image=data:image/svg+xml,PHN2ZyB4bWxucz0iaHR0cDovL3d3dy53My5vcmcvMjAwMC9zdmciIHhtbG5zOnhsaW5rPSJodHRwOi8vd3d3LnczLm9yZy8xOTk5L3hsaW5rIiBoZWlnaHQ9IjM0OS44NzY2Nzg0NjY3OTY5IiB2aWV3Qm94PSIwLjY3ODU3MTcwMTA0OTgwNDcgMC4zMzE5Mzk2OTcyNjU2MjUgMzAyLjUxMjQyMDY1NDI5NjkgMzQ5Ljg3NjY3ODQ2Njc5NjkiIHdpZHRoPSIzMDIuNTEyNDIwNjU0Mjk2OSI+JiN4YTs8bWFzayBpZD0iYSIgZmlsbD0iI2ZmZiI+JiN4YTs8cGF0aCBkPSJtMCAwaDMxMy4zMDMxNTV2MTU5Ljg2NDg2NWgtMzEzLjMwMzE1NXoiIGZpbGw9IiNmZmYiIGZpbGwtcnVsZT0iZXZlbm9kZCIvPiYjeGE7PC9tYXNrPiYjeGE7PG1hc2sgaWQ9ImIiIGZpbGw9IiNmZmYiPiYjeGE7PHBhdGggZD0ibTAgMGgzMTMuMzAzMTU1djE1OS44NjQ4NjVoLTMxMy4zMDMxNTV6IiBmaWxsPSIjZmZmIiBmaWxsLXJ1bGU9ImV2ZW5vZGQiLz4mI3hhOzwvbWFzaz4mI3hhOzxnIGZpbGw9Im5vbmUiIGZpbGwtcnVsZT0iZXZlbm9kZCIgdHJhbnNmb3JtPSJ0cmFuc2xhdGUoLTExIC01MSkiPiYjeGE7PHBhdGggZD0ibTExLjY3ODU3MTQgMTg5aDE5Ljc4NTgzNTd2MjYuNzg5aDIzLjkwMzd2LTI2Ljc4OWgxOS43ODU4MzU4djc1LjI1aC0xOS43ODU4MzU4di0yOC42OTUzMzNoLTIzLjkwMzd2MjguNjk1MzMzaC0xOS43ODU4MzU3em04Ni4xNzM4NDI5IDc1LjI1di03NS4yNWg0Ni44MDMwNDI3djE2LjM1NDMzM2gtMjcuMDE3MjA3djEyLjI0MDY2N2gyMy45MDM3djE2LjY1NTMzM2gtMjMuOTAzN3YxMy44NDZoMjcuMDE3MjA3djE2LjE1MzY2N3ptNjguNDk3MTU2NyAwdi03NS4yNWgxOS43ODU4MzZ2NTUuMzg0aDI3LjExNzY0M3YxOS44NjZ6bTc3LjUzNjM3Mi03NS4yNSAzMC43MzMzMjggMjcuODkyNjY3IDMwLjYzMjg5My0yNy44OTI2NjdoOC45Mzg3Nzl2NzUuMjVoLTE5Ljg4NjI3MnYtMzguNjI4MzMzbC0xOS42ODU0IDE3Ljk1OTY2Ni0xOS43ODU4MzUtMTcuODU5MzMzdjM4LjUyOGgtMTkuODg2Mjcydi03NS4yNXoiIGZpbGw9IiMwZjE2ODkiLz4mI3hhOzxnIHRyYW5zZm9ybT0ibWF0cml4KDEgMCAwIC0xIDExLjk1ODEzNiA0NTUpIj4mI3hhOzxnIGZpbGw9IiMwZjE2ODkiIG1hc2s9InVybCgjYSkiPiYjeGE7PHBhdGggZD0ibTIwMy40NjA2NzYgOTUuNjg3NTQyNWM2LjkzNjMxIDAgMTIuNTU5MzAxLTE0LjgwOTIxOTQgMTIuNTU5MzAxLTMzLjA3NzMxNzJzLTUuNjIyOTkxLTMzLjA3NzMxNzItMTIuNTU5MzAxLTMzLjA3NzMxNzJjLTYuOTM2MzExIDAtMTIuNTU5MzAxIDE0LjgwOTIxOTQtMTIuNTU5MzAxIDMzLjA3NzMxNzJzNS42MjI5OSAzMy4wNzczMTcyIDEyLjU1OTMwMSAzMy4wNzczMTcyeiIgdHJhbnNmb3JtPSJtYXRyaXgoLjgxOTE1MjA0IC41NzM1NzY0NCAtLjU3MzU3NjQ0IC44MTkxNTIwNCAxMTEuODcwMDkxIC01MS43MDY1NTYpIi8+JiN4YTs8cGF0aCBkPSJtMzAuMTQyMzIyMyA5NS42ODc1NDI1YzYuOTM2MzEwNCAwIDEyLjU1OTMwMS0xNC44MDkyMTk0IDEyLjU1OTMwMS0zMy4wNzczMTcycy01LjYyMjk5MDYtMzMuMDc3MzE3Mi0xMi41NTkzMDEtMzMuMDc3MzE3Mi0xMi41NTkzMDA5IDE0LjgwOTIxOTQtMTIuNTU5MzAwOSAzMy4wNzczMTcyIDUuNjIyOTkwNSAzMy4wNzczMTcyIDEyLjU1OTMwMDkgMzMuMDc3MzE3MnoiIHRyYW5zZm9ybT0ibWF0cml4KC0uODE5MTUyMDQgLjU3MzU3NjQ0IC41NzM1NzY0NCAuODE5MTUyMDQgNTguMDg0NjExIDQ3LjcwNDc2OCkiLz4mI3hhOzxwYXRoIGQ9Im0xMTYuNzMyODE1IDY2LjI3NTI2NzZjNi45MzYzMTEgMCAxMi41NTkzMDEtMTQuODA5MjE5MyAxMi41NTkzMDEtMzMuMDc3MzE3MiAwLTE4LjI2ODA5NzgtNS42MjI5OS0zMy4wNzczMTcxMy0xMi41NTkzMDEtMzMuMDc3MzE3MTMtNi45MzYzMSAwLTEyLjU1OTMwMSAxNC44MDkyMTkzMy0xMi41NTkzMDEgMzMuMDc3MzE3MTMgMCAxOC4yNjgwOTc5IDUuNjIyOTkxIDMzLjA3NzMxNzIgMTIuNTU5MzAxIDMzLjA3NzMxNzJ6IiB0cmFuc2Zvcm09Im1hdHJpeCgtMSAwIDAgMSAyNzIuNjI4NTI0IDUzLjY3MDc2MikiLz4mI3hhOzwvZz4mI3hhOzxwYXRoIGQ9Im0yNTEuNDY3MDA2IDE3My4wOTk4NDljLTIwLjIzMDA3Ni0zMy42MDk5NjktNTYuODg5NTY1LTU2LjA2NzkwOC05OC43NTU3NzYtNTYuMDY3OTA4LTQwLjcyMDc5OCAwLTc2LjUxNTg3NjYgMjEuMjQ1OTAxLTk3LjA1ODY5NTkgNTMuMzM0NTg4bTIuMTk4MTEwNyAxMjkuMTY5NTM0YzIwLjg0MDMwMzYgMzAuMjMyNzAxIDU1LjU1NTkwNDIgNTAuMDI2NTkxIDk0Ljg2MDU4NTIgNTAuMDI2NTkxIDM5LjM3NjA5OSAwIDc0LjE0NjQyNC0xOS44NjU4ODcgOTQuOTc0MDQ5LTUwLjE5MTQ5NSIgbWFzaz0idXJsKCNhKSIgc3Ryb2tlPSIjMGYxNjg5IiBzdHJva2Utd2lkdGg9IjIwIi8+JiN4YTs8L2c+JiN4YTs8ZyB0cmFuc2Zvcm09InRyYW5zbGF0ZSgxMS45NTgxMzYpIj4mI3hhOzxnIGZpbGw9IiMwZjE2ODkiIG1hc2s9InVybCgjYikiPiYjeGE7PHBhdGggZD0ibTIwMy40NjA2NzYgOTUuNjg3NTQyNWM2LjkzNjMxIDAgMTIuNTU5MzAxLTE0LjgwOTIxOTQgMTIuNTU5MzAxLTMzLjA3NzMxNzJzLTUuNjIyOTkxLTMzLjA3NzMxNzItMTIuNTU5MzAxLTMzLjA3NzMxNzJjLTYuOTM2MzExIDAtMTIuNTU5MzAxIDE0LjgwOTIxOTQtMTIuNTU5MzAxIDMzLjA3NzMxNzJzNS42MjI5OSAzMy4wNzczMTcyIDEyLjU1OTMwMSAzMy4wNzczMTcyeiIgdHJhbnNmb3JtPSJtYXRyaXgoLjgxOTE1MjA0IC41NzM1NzY0NCAtLjU3MzU3NjQ0IC44MTkxNTIwNCAxMTEuODcwMDkxIC01NC4xNjYwMTYpIi8+JiN4YTs8cGF0aCBkPSJtMzAuMTQyMzIyMyA5NS42ODc1NDI1YzYuOTM2MzEwNCAwIDEyLjU1OTMwMS0xNC44MDkyMTk0IDEyLjU1OTMwMS0zMy4wNzczMTcycy01LjYyMjk5MDYtMzMuMDc3MzE3Mi0xMi41NTkzMDEtMzMuMDc3MzE3Mi0xMi41NTkzMDA5IDE0LjgwOTIxOTQtMTIuNTU5MzAwOSAzMy4wNzczMTcyIDUuNjIyOTkwNSAzMy4wNzczMTcyIDEyLjU1OTMwMDkgMzMuMDc3MzE3MnoiIHRyYW5zZm9ybT0ibWF0cml4KC0uODE5MTUyMDQgLjU3MzU3NjQ0IC41NzM1NzY0NCAuODE5MTUyMDQgNTguMDg0NjExIDQ1LjI0NTMwOCkiLz4mI3hhOzxwYXRoIGQ9Im0xMTYuNzMyODE1IDY2LjI3NTI2NzZjNi45MzYzMTEgMCAxMi41NTkzMDEtMTQuODA5MjE5MyAxMi41NTkzMDEtMzMuMDc3MzE3MiAwLTE4LjI2ODA5NzgtNS42MjI5OS0zMy4wNzczMTcxMy0xMi41NTkzMDEtMzMuMDc3MzE3MTMtNi45MzYzMSAwLTEyLjU1OTMwMSAxNC44MDkyMTkzMy0xMi41NTkzMDEgMzMuMDc3MzE3MTMgMCAxOC4yNjgwOTc5IDUuNjIyOTkxIDMzLjA3NzMxNzIgMTIuNTU5MzAxIDMzLjA3NzMxNzJ6IiB0cmFuc2Zvcm09Im1hdHJpeCgtMSAwIDAgMSAyNzIuNjI4NTI0IDUxLjIxMTMwMikiLz4mI3hhOzwvZz4mI3hhOzxwYXRoIGQ9Im0yNTEuNDY3MDA2IDE3MC42NDAzOWMtMjAuMjMwMDc2LTMzLjYwOTk2OS01Ni44ODk1NjUtNTYuMDY3OTA4LTk4Ljc1NTc3Ni01Ni4wNjc5MDgtNDAuNzIwNzk4IDAtNzYuNTE1ODc2NiAyMS4yNDU5LTk3LjA1ODY5NTkgNTMuMzM0NTg3bTIuMTk4MTEwNyAxMjkuMTY5NTM0YzIwLjg0MDMwMzYgMzAuMjMyNzAyIDU1LjU1NTkwNDIgNTAuMDI2NTkxIDk0Ljg2MDU4NTIgNTAuMDI2NTkxIDM5LjM3NjA5OSAwIDc0LjE0NjQyNC0xOS44NjU4ODYgOTQuOTc0MDQ5LTUwLjE5MTQ5NCIgbWFzaz0idXJsKCNiKSIgc3Ryb2tlPSIjMGYxNjg5IiBzdHJva2Utd2lkdGg9IjIwIi8+JiN4YTs8L2c+JiN4YTs8L2c+JiN4YTs8L3N2Zz4=" vertex="1" parent="14">
          <mxGeometry x="207.5" y="230" width="51.94" height="60" as="geometry" />
        </mxCell>
        <mxCell id="585" style="edgeStyle=elbowEdgeStyle;rounded=0;elbow=vertical;html=1;labelBackgroundColor=none;startArrow=blockThin;startFill=1;startSize=4;endArrow=blockThin;endFill=1;endSize=4;jettySize=auto;orthogonalLoop=1;strokeColor=#4284F3;strokeWidth=2;fontSize=12;fontColor=#000000;align=center;dashed=0;" parent="1" source="580" target="574" edge="1">
          <mxGeometry relative="1" as="geometry" />
        </mxCell>
        <mxCell id="580" value="Engine&lt;br&gt;&lt;font style=&quot;font-size: 9px&quot;&gt;Custom MQTT &amp;lt;-&amp;gt; Cloud Pub/Sub broker&lt;/font&gt;" style="rounded=1;absoluteArcSize=1;arcSize=2;html=1;strokeColor=none;gradientColor=none;shadow=0;dashed=0;strokeColor=none;fontSize=12;fontColor=#9E9E9E;align=left;verticalAlign=top;spacing=10;spacingTop=-4;fillColor=#E1F5FE;" parent="1" vertex="1">
          <mxGeometry x="529.5" y="280" width="190" height="140" as="geometry" />
        </mxCell>
        <mxCell id="2" value="Architecture: Internet of Things &amp;gt; MQTT to PubSub Broker" style="fillColor=#4DA1F5;strokeColor=none;shadow=1;gradientColor=none;fontSize=14;align=left;spacingLeft=50;fontColor=#ffffff;html=1;" parent="1" vertex="1">
          <mxGeometry x="209.5" y="40" width="750" height="40" as="geometry" />
        </mxCell>
        <mxCell id="582" style="edgeStyle=elbowEdgeStyle;rounded=0;elbow=vertical;html=1;labelBackgroundColor=none;startArrow=blockThin;startFill=1;startSize=4;endArrow=blockThin;endFill=1;endSize=4;jettySize=auto;orthogonalLoop=1;strokeColor=#4284F3;strokeWidth=2;fontSize=12;fontColor=#000000;align=center;dashed=0;" parent="1" target="wHmKWYzwHDe0dpPs2I7R-599" edge="1">
          <mxGeometry relative="1" as="geometry">
            <mxPoint x="180" y="347.71428571428567" as="sourcePoint" />
            <mxPoint x="401" y="430" as="targetPoint" />
          </mxGeometry>
        </mxCell>
        <mxCell id="586" style="edgeStyle=elbowEdgeStyle;rounded=0;elbow=vertical;html=1;labelBackgroundColor=none;startArrow=blockThin;startFill=1;startSize=4;endArrow=blockThin;endFill=1;endSize=4;jettySize=auto;orthogonalLoop=1;strokeColor=#4284F3;strokeWidth=2;fontSize=12;fontColor=#000000;align=center;dashed=0;" parent="1" source="572" target="574" edge="1">
          <mxGeometry relative="1" as="geometry" />
        </mxCell>
        <mxCell id="572" value="" style="strokeColor=#dddddd;fillColor=#ffffff;shadow=1;strokeWidth=1;rounded=1;absoluteArcSize=1;arcSize=2;fontSize=10;fontColor=#9E9E9E;align=center;html=1;" parent="1" vertex="1">
          <mxGeometry x="769.5" y="215" width="150" height="60" as="geometry" />
        </mxCell>
        <mxCell id="573" value="&lt;font color=&quot;#000000&quot;&gt;IoT Application&lt;/font&gt;&lt;br&gt;App Engine" style="dashed=0;connectable=0;html=1;fillColor=#5184F3;strokeColor=none;shape=mxgraph.gcp2.hexIcon;prIcon=app_engine;part=1;labelPosition=right;verticalLabelPosition=middle;align=left;verticalAlign=middle;spacingLeft=5;fontColor=#999999;fontSize=12;" parent="572" vertex="1">
          <mxGeometry y="0.5" width="44" height="39" relative="1" as="geometry">
            <mxPoint x="5" y="-19.5" as="offset" />
          </mxGeometry>
        </mxCell>
        <mxCell id="587" style="edgeStyle=elbowEdgeStyle;rounded=0;elbow=vertical;html=1;labelBackgroundColor=none;startArrow=none;startFill=0;startSize=4;endArrow=blockThin;endFill=1;endSize=4;jettySize=auto;orthogonalLoop=1;strokeColor=#4284F3;strokeWidth=2;fontSize=12;fontColor=#000000;align=center;dashed=0;" parent="1" source="574" target="576" edge="1">
          <mxGeometry relative="1" as="geometry" />
        </mxCell>
        <mxCell id="574" value="" style="strokeColor=#dddddd;fillColor=#ffffff;shadow=1;strokeWidth=1;rounded=1;absoluteArcSize=1;arcSize=2;fontSize=10;fontColor=#9E9E9E;align=center;html=1;" parent="1" vertex="1">
          <mxGeometry x="769.5" y="310" width="150" height="60" as="geometry" />
        </mxCell>
        <mxCell id="575" value="&lt;font color=&quot;#000000&quot;&gt;IoT Topic&lt;/font&gt;&lt;br&gt;Cloud Pub/Sub" style="dashed=0;connectable=0;html=1;fillColor=#5184F3;strokeColor=none;shape=mxgraph.gcp2.hexIcon;prIcon=cloud_pubsub;part=1;labelPosition=right;verticalLabelPosition=middle;align=left;verticalAlign=middle;spacingLeft=5;fontColor=#999999;fontSize=12;" parent="574" vertex="1">
          <mxGeometry y="0.5" width="44" height="39" relative="1" as="geometry">
            <mxPoint x="5" y="-19.5" as="offset" />
          </mxGeometry>
        </mxCell>
        <mxCell id="588" style="edgeStyle=elbowEdgeStyle;rounded=0;elbow=vertical;html=1;labelBackgroundColor=none;startArrow=none;startFill=0;startSize=4;endArrow=blockThin;endFill=1;endSize=4;jettySize=auto;orthogonalLoop=1;strokeColor=#4284F3;strokeWidth=2;fontSize=12;fontColor=#000000;align=center;dashed=0;" parent="1" source="576" target="578" edge="1">
          <mxGeometry relative="1" as="geometry" />
        </mxCell>
        <mxCell id="576" value="" style="strokeColor=#dddddd;fillColor=#ffffff;shadow=1;strokeWidth=1;rounded=1;absoluteArcSize=1;arcSize=2;fontSize=10;fontColor=#9E9E9E;align=center;html=1;" parent="1" vertex="1">
          <mxGeometry x="769.5" y="405" width="150" height="60" as="geometry" />
        </mxCell>
        <mxCell id="577" value="&lt;font color=&quot;#000000&quot;&gt;Stream Analytics&lt;/font&gt;&lt;br&gt;Cloud Dataflow" style="dashed=0;connectable=0;html=1;fillColor=#5184F3;strokeColor=none;shape=mxgraph.gcp2.hexIcon;prIcon=cloud_dataflow;part=1;labelPosition=right;verticalLabelPosition=middle;align=left;verticalAlign=middle;spacingLeft=5;fontColor=#999999;fontSize=12;" parent="576" vertex="1">
          <mxGeometry y="0.5" width="44" height="39" relative="1" as="geometry">
            <mxPoint x="5" y="-19.5" as="offset" />
          </mxGeometry>
        </mxCell>
        <mxCell id="578" value="" style="strokeColor=#dddddd;fillColor=#ffffff;shadow=1;strokeWidth=1;rounded=1;absoluteArcSize=1;arcSize=2;fontSize=10;fontColor=#9E9E9E;align=center;html=1;" parent="1" vertex="1">
          <mxGeometry x="769.5" y="495" width="150" height="60" as="geometry" />
        </mxCell>
        <mxCell id="579" value="&lt;font color=&quot;#000000&quot;&gt;IoT Warehouse&lt;/font&gt;&lt;br&gt;BigQuery" style="dashed=0;connectable=0;html=1;fillColor=#5184F3;strokeColor=none;shape=mxgraph.gcp2.hexIcon;prIcon=bigquery;part=1;labelPosition=right;verticalLabelPosition=middle;align=left;verticalAlign=middle;spacingLeft=5;fontColor=#999999;fontSize=12;" parent="578" vertex="1">
          <mxGeometry y="0.5" width="44" height="39" relative="1" as="geometry">
            <mxPoint x="5" y="-19.5" as="offset" />
          </mxGeometry>
        </mxCell>
        <mxCell id="wHmKWYzwHDe0dpPs2I7R-588" value="" style="html=1;dashed=0;whitespace=wrap;fillColor=#2875E2;strokeColor=#ffffff;points=[[0.005,0.63,0],[0.1,0.2,0],[0.9,0.2,0],[0.5,0,0],[0.995,0.63,0],[0.72,0.99,0],[0.5,1,0],[0.28,0.99,0]];shape=mxgraph.kubernetes.icon;prIcon=user" vertex="1" parent="1">
          <mxGeometry x="535" y="366" width="50" height="48" as="geometry" />
        </mxCell>
        <mxCell id="wHmKWYzwHDe0dpPs2I7R-592" value="" style="html=1;dashed=0;whitespace=wrap;fillColor=#2875E2;strokeColor=#ffffff;points=[[0.005,0.63,0],[0.1,0.2,0],[0.9,0.2,0],[0.5,0,0],[0.995,0.63,0],[0.72,0.99,0],[0.5,1,0],[0.28,0.99,0]];shape=mxgraph.kubernetes.icon;prIcon=master" vertex="1" parent="1">
          <mxGeometry x="1010" y="308" width="110" height="64" as="geometry" />
        </mxCell>
        <mxCell id="wHmKWYzwHDe0dpPs2I7R-602" value="" style="shape=image;verticalLabelPosition=bottom;verticalAlign=top;imageAspect=0;aspect=fixed;image=data:image/svg+xml,PHN2ZyB4bWxucz0iaHR0cDovL3d3dy53My5vcmcvMjAwMC9zdmciIHhtbG5zOnhsaW5rPSJodHRwOi8vd3d3LnczLm9yZy8xOTk5L3hsaW5rIiBoZWlnaHQ9IjM0OS44NzY2Nzg0NjY3OTY5IiB2aWV3Qm94PSIwLjY3ODU3MTcwMTA0OTgwNDcgMC4zMzE5Mzk2OTcyNjU2MjUgMzAyLjUxMjQyMDY1NDI5NjkgMzQ5Ljg3NjY3ODQ2Njc5NjkiIHdpZHRoPSIzMDIuNTEyNDIwNjU0Mjk2OSI+JiN4YTs8bWFzayBpZD0iYSIgZmlsbD0iI2ZmZiI+JiN4YTs8cGF0aCBkPSJtMCAwaDMxMy4zMDMxNTV2MTU5Ljg2NDg2NWgtMzEzLjMwMzE1NXoiIGZpbGw9IiNmZmYiIGZpbGwtcnVsZT0iZXZlbm9kZCIvPiYjeGE7PC9tYXNrPiYjeGE7PG1hc2sgaWQ9ImIiIGZpbGw9IiNmZmYiPiYjeGE7PHBhdGggZD0ibTAgMGgzMTMuMzAzMTU1djE1OS44NjQ4NjVoLTMxMy4zMDMxNTV6IiBmaWxsPSIjZmZmIiBmaWxsLXJ1bGU9ImV2ZW5vZGQiLz4mI3hhOzwvbWFzaz4mI3hhOzxnIGZpbGw9Im5vbmUiIGZpbGwtcnVsZT0iZXZlbm9kZCIgdHJhbnNmb3JtPSJ0cmFuc2xhdGUoLTExIC01MSkiPiYjeGE7PHBhdGggZD0ibTExLjY3ODU3MTQgMTg5aDE5Ljc4NTgzNTd2MjYuNzg5aDIzLjkwMzd2LTI2Ljc4OWgxOS43ODU4MzU4djc1LjI1aC0xOS43ODU4MzU4di0yOC42OTUzMzNoLTIzLjkwMzd2MjguNjk1MzMzaC0xOS43ODU4MzU3em04Ni4xNzM4NDI5IDc1LjI1di03NS4yNWg0Ni44MDMwNDI3djE2LjM1NDMzM2gtMjcuMDE3MjA3djEyLjI0MDY2N2gyMy45MDM3djE2LjY1NTMzM2gtMjMuOTAzN3YxMy44NDZoMjcuMDE3MjA3djE2LjE1MzY2N3ptNjguNDk3MTU2NyAwdi03NS4yNWgxOS43ODU4MzZ2NTUuMzg0aDI3LjExNzY0M3YxOS44NjZ6bTc3LjUzNjM3Mi03NS4yNSAzMC43MzMzMjggMjcuODkyNjY3IDMwLjYzMjg5My0yNy44OTI2NjdoOC45Mzg3Nzl2NzUuMjVoLTE5Ljg4NjI3MnYtMzguNjI4MzMzbC0xOS42ODU0IDE3Ljk1OTY2Ni0xOS43ODU4MzUtMTcuODU5MzMzdjM4LjUyOGgtMTkuODg2Mjcydi03NS4yNXoiIGZpbGw9IiMwZjE2ODkiLz4mI3hhOzxnIHRyYW5zZm9ybT0ibWF0cml4KDEgMCAwIC0xIDExLjk1ODEzNiA0NTUpIj4mI3hhOzxnIGZpbGw9IiMwZjE2ODkiIG1hc2s9InVybCgjYSkiPiYjeGE7PHBhdGggZD0ibTIwMy40NjA2NzYgOTUuNjg3NTQyNWM2LjkzNjMxIDAgMTIuNTU5MzAxLTE0LjgwOTIxOTQgMTIuNTU5MzAxLTMzLjA3NzMxNzJzLTUuNjIyOTkxLTMzLjA3NzMxNzItMTIuNTU5MzAxLTMzLjA3NzMxNzJjLTYuOTM2MzExIDAtMTIuNTU5MzAxIDE0LjgwOTIxOTQtMTIuNTU5MzAxIDMzLjA3NzMxNzJzNS42MjI5OSAzMy4wNzczMTcyIDEyLjU1OTMwMSAzMy4wNzczMTcyeiIgdHJhbnNmb3JtPSJtYXRyaXgoLjgxOTE1MjA0IC41NzM1NzY0NCAtLjU3MzU3NjQ0IC44MTkxNTIwNCAxMTEuODcwMDkxIC01MS43MDY1NTYpIi8+JiN4YTs8cGF0aCBkPSJtMzAuMTQyMzIyMyA5NS42ODc1NDI1YzYuOTM2MzEwNCAwIDEyLjU1OTMwMS0xNC44MDkyMTk0IDEyLjU1OTMwMS0zMy4wNzczMTcycy01LjYyMjk5MDYtMzMuMDc3MzE3Mi0xMi41NTkzMDEtMzMuMDc3MzE3Mi0xMi41NTkzMDA5IDE0LjgwOTIxOTQtMTIuNTU5MzAwOSAzMy4wNzczMTcyIDUuNjIyOTkwNSAzMy4wNzczMTcyIDEyLjU1OTMwMDkgMzMuMDc3MzE3MnoiIHRyYW5zZm9ybT0ibWF0cml4KC0uODE5MTUyMDQgLjU3MzU3NjQ0IC41NzM1NzY0NCAuODE5MTUyMDQgNTguMDg0NjExIDQ3LjcwNDc2OCkiLz4mI3hhOzxwYXRoIGQ9Im0xMTYuNzMyODE1IDY2LjI3NTI2NzZjNi45MzYzMTEgMCAxMi41NTkzMDEtMTQuODA5MjE5MyAxMi41NTkzMDEtMzMuMDc3MzE3MiAwLTE4LjI2ODA5NzgtNS42MjI5OS0zMy4wNzczMTcxMy0xMi41NTkzMDEtMzMuMDc3MzE3MTMtNi45MzYzMSAwLTEyLjU1OTMwMSAxNC44MDkyMTkzMy0xMi41NTkzMDEgMzMuMDc3MzE3MTMgMCAxOC4yNjgwOTc5IDUuNjIyOTkxIDMzLjA3NzMxNzIgMTIuNTU5MzAxIDMzLjA3NzMxNzJ6IiB0cmFuc2Zvcm09Im1hdHJpeCgtMSAwIDAgMSAyNzIuNjI4NTI0IDUzLjY3MDc2MikiLz4mI3hhOzwvZz4mI3hhOzxwYXRoIGQ9Im0yNTEuNDY3MDA2IDE3My4wOTk4NDljLTIwLjIzMDA3Ni0zMy42MDk5NjktNTYuODg5NTY1LTU2LjA2NzkwOC05OC43NTU3NzYtNTYuMDY3OTA4LTQwLjcyMDc5OCAwLTc2LjUxNTg3NjYgMjEuMjQ1OTAxLTk3LjA1ODY5NTkgNTMuMzM0NTg4bTIuMTk4MTEwNyAxMjkuMTY5NTM0YzIwLjg0MDMwMzYgMzAuMjMyNzAxIDU1LjU1NTkwNDIgNTAuMDI2NTkxIDk0Ljg2MDU4NTIgNTAuMDI2NTkxIDM5LjM3NjA5OSAwIDc0LjE0NjQyNC0xOS44NjU4ODcgOTQuOTc0MDQ5LTUwLjE5MTQ5NSIgbWFzaz0idXJsKCNhKSIgc3Ryb2tlPSIjMGYxNjg5IiBzdHJva2Utd2lkdGg9IjIwIi8+JiN4YTs8L2c+JiN4YTs8ZyB0cmFuc2Zvcm09InRyYW5zbGF0ZSgxMS45NTgxMzYpIj4mI3hhOzxnIGZpbGw9IiMwZjE2ODkiIG1hc2s9InVybCgjYikiPiYjeGE7PHBhdGggZD0ibTIwMy40NjA2NzYgOTUuNjg3NTQyNWM2LjkzNjMxIDAgMTIuNTU5MzAxLTE0LjgwOTIxOTQgMTIuNTU5MzAxLTMzLjA3NzMxNzJzLTUuNjIyOTkxLTMzLjA3NzMxNzItMTIuNTU5MzAxLTMzLjA3NzMxNzJjLTYuOTM2MzExIDAtMTIuNTU5MzAxIDE0LjgwOTIxOTQtMTIuNTU5MzAxIDMzLjA3NzMxNzJzNS42MjI5OSAzMy4wNzczMTcyIDEyLjU1OTMwMSAzMy4wNzczMTcyeiIgdHJhbnNmb3JtPSJtYXRyaXgoLjgxOTE1MjA0IC41NzM1NzY0NCAtLjU3MzU3NjQ0IC44MTkxNTIwNCAxMTEuODcwMDkxIC01NC4xNjYwMTYpIi8+JiN4YTs8cGF0aCBkPSJtMzAuMTQyMzIyMyA5NS42ODc1NDI1YzYuOTM2MzEwNCAwIDEyLjU1OTMwMS0xNC44MDkyMTk0IDEyLjU1OTMwMS0zMy4wNzczMTcycy01LjYyMjk5MDYtMzMuMDc3MzE3Mi0xMi41NTkzMDEtMzMuMDc3MzE3Mi0xMi41NTkzMDA5IDE0LjgwOTIxOTQtMTIuNTU5MzAwOSAzMy4wNzczMTcyIDUuNjIyOTkwNSAzMy4wNzczMTcyIDEyLjU1OTMwMDkgMzMuMDc3MzE3MnoiIHRyYW5zZm9ybT0ibWF0cml4KC0uODE5MTUyMDQgLjU3MzU3NjQ0IC41NzM1NzY0NCAuODE5MTUyMDQgNTguMDg0NjExIDQ1LjI0NTMwOCkiLz4mI3hhOzxwYXRoIGQ9Im0xMTYuNzMyODE1IDY2LjI3NTI2NzZjNi45MzYzMTEgMCAxMi41NTkzMDEtMTQuODA5MjE5MyAxMi41NTkzMDEtMzMuMDc3MzE3MiAwLTE4LjI2ODA5NzgtNS42MjI5OS0zMy4wNzczMTcxMy0xMi41NTkzMDEtMzMuMDc3MzE3MTMtNi45MzYzMSAwLTEyLjU1OTMwMSAxNC44MDkyMTkzMy0xMi41NTkzMDEgMzMuMDc3MzE3MTMgMCAxOC4yNjgwOTc5IDUuNjIyOTkxIDMzLjA3NzMxNzIgMTIuNTU5MzAxIDMzLjA3NzMxNzJ6IiB0cmFuc2Zvcm09Im1hdHJpeCgtMSAwIDAgMSAyNzIuNjI4NTI0IDUxLjIxMTMwMikiLz4mI3hhOzwvZz4mI3hhOzxwYXRoIGQ9Im0yNTEuNDY3MDA2IDE3MC42NDAzOWMtMjAuMjMwMDc2LTMzLjYwOTk2OS01Ni44ODk1NjUtNTYuMDY3OTA4LTk4Ljc1NTc3Ni01Ni4wNjc5MDgtNDAuNzIwNzk4IDAtNzYuNTE1ODc2NiAyMS4yNDU5LTk3LjA1ODY5NTkgNTMuMzM0NTg3bTIuMTk4MTEwNyAxMjkuMTY5NTM0YzIwLjg0MDMwMzYgMzAuMjMyNzAyIDU1LjU1NTkwNDIgNTAuMDI2NTkxIDk0Ljg2MDU4NTIgNTAuMDI2NTkxIDM5LjM3NjA5OSAwIDc0LjE0NjQyNC0xOS44NjU4ODYgOTQuOTc0MDQ5LTUwLjE5MTQ5NCIgbWFzaz0idXJsKCNiKSIgc3Ryb2tlPSIjMGYxNjg5IiBzdHJva2Utd2lkdGg9IjIwIi8+JiN4YTs8L2c+JiN4YTs8L2c+JiN4YTs8L3N2Zz4=" vertex="1" parent="1">
          <mxGeometry x="598.53" y="360" width="51.94" height="60" as="geometry" />
        </mxCell>
        <mxCell id="wHmKWYzwHDe0dpPs2I7R-613" value="" style="strokeColor=#dddddd;shadow=1;strokeWidth=1;rounded=1;absoluteArcSize=1;arcSize=2;" vertex="1" parent="1">
          <mxGeometry x="-10" y="145" width="200" height="70" as="geometry" />
        </mxCell>
        <mxCell id="wHmKWYzwHDe0dpPs2I7R-614" value="&lt;font color=&quot;#000000&quot;&gt;Application Configuration&lt;/font&gt;&lt;br&gt;" style="dashed=0;connectable=0;html=1;fillColor=#5184F3;strokeColor=none;shape=mxgraph.gcp2.container_engine;part=1;labelPosition=right;verticalLabelPosition=middle;align=left;verticalAlign=top;spacingLeft=5;fontColor=#999999;fontSize=12;spacingTop=-8;" vertex="1" parent="wHmKWYzwHDe0dpPs2I7R-613">
          <mxGeometry width="44" height="39" relative="1" as="geometry">
            <mxPoint x="5" y="7" as="offset" />
          </mxGeometry>
        </mxCell>
        <mxCell id="wHmKWYzwHDe0dpPs2I7R-612" value="" style="shape=image;verticalLabelPosition=bottom;verticalAlign=top;imageAspect=0;image=data:image/png,iVBORw0KGgoAAAANSUhEUgAAAoAAAAKACAIAAACDr150AABhtUlEQVR42u2dh3dUZfe2f3/UJymkAKF3CAEy6Y2QXrEDiihgV8CGKBawV0BFRV/svYuCKAhSpCXTMjPJzOxv7XNSIIIGyCRznnNd614sXgVeTOac+9n1+T8BAACAEef/+BIAAABgwAAAABgwAAAAYMAAAAAYMAAAAGDAAAAAGDAAAABgwAAAABgwAAAAYMAAAAAYMAAAAAYMAAAAGDAAAAAGDAAAABgwAAAABgwAAAAYMAAAAAYMAAAAGDAAAAAGDAAAgAEDAAAABgwAAIABAwAAAAYMAACAAQMAAAAGDAAAgAEDAAAABgwAAIABAwAAYMAAAACAAQMAAGDAAAAAgAEDAABgwAAAAIABAwAAYMAAAACAAQMAAGDAAAAAGDAAAABgwAAAABgwAAAAYMAAAAAYMAAAAGDAAAAAGDAAAABgwAAAABgwAAAABgwAAAAYMAAAAAYMAAAAGDAAAAAGDAAAABgwAAAABgwAAAAYMAAAAAYMAACAAQMAAAAGDAAAgAEDAAAABgwAAIABAwAAAAYMAACAAQMAAAAGDJD8xEXi8QFF4xKzFZVYbGiK9v6WaPy8PyrOFxcAAwZws7NGo4P90nbKkfub2L4elZ4L/TXiGDUABgzgSKM932Wj0cuxtGhUgl3S4ZMTp+Xwcfn9L/ntT9l3UH7+Xb7fJ9/+Il/+fJ6++UV+2Cc//6a/Zv8h+f2w/q7jp+SsVwJB6YlelklHR+2IAIABA8CQQskhGm1Pj5w8KweOyNc/y7ufyvNvycMvyl1PyIoN0na7LFklBdfKojaZ2yTTa2TyEplYKdnlklUsY4tkbKGkF0haoaQVqFL/oTTr36YX6K/MKNLfNa5UciplUqVMq5E5DbKwTTzXStVKaV4ny9fL7Y/JQy/IMzvlrY/k8x/Vtk+clnD3kI0ZVwbAgAFG3m5jF48p4zE5flpD1d2fyZOvy11PytV3S8UKWdiqRjiuTN0xtUBSPGqZ6YWSWSLZZTKhQiZVydQatd5ZdTK7QeY2yrwmmd8sC1p7ldcqeW2qhReR/tvWgV8/v1nmNeufM6dB/8wZNfoXmFwlORX618gslvQiy8s9+pcZW6h/jalLJbdFSm+QtjvUoR97Re35x/3y1wk9PVyMWFyDbCwZAAMGGGbH1ej2Ir/m6N+a/n3pbbnvKWm/Q0PYGbXqZGmFlsUWSkaJjC+TKdXqf3Maeg11YZssau/Thbwzt0V/5XApt2Wwi5/3F2i3/gKWYc9plBl1+redUKEng/S+/4rMEjXv/KulaZ3c+YQ8+6Z89oNmuaMXOYj0Fpij+DEABgwwFMftS7FezFeOn9Zs7VPbZdVDGtTOqpOs0t4M8NgiNa1p1Rq8zm9Wk1vU1uuveW0JsdVEKLcv4B70989t1tPDtBqNnjNLNG5O8WgMPb1GSq7XhPbml+XDr+XI8Qt/3aLExwAYMMAFwty+bqN/GvKho/L2p3L/01J3q5Zmx5X2po6zSmRytcyq7/Pa8402yV32SsLofmO2/2NnN2i4PK5MY+XUArXkmXVSvUrueFy2/08bx/6ZuO4/4mDGgAEDuDHS1RzphTzg7zPywdeycZvU3qr+mlls1UeLNPKbWTdgtwv7MsZGeu3QtaClL6NuB8ot+kWbVKVRcqpHXXlajbZ93b1FzzFHTlzAjO3iMWYMGDCAyfS2UP3jXf/7YXnpHVm5URYt0/Jtqu24VeolC1r6Aj7sdoiWbJWZF9mWbIXIk6r066kp6xL9BdfeI1t3yt4/Bjey9UbGLAwBDBjAkGC3b+PEIA4clmffkGV3a5Ow3ZacXabh2vzmAfPAcYchcX2OH+e2aIfa+DKr/btAZtZK41p5/BX5+cBg073s+WkADBhg9H33n2/w46dkx/9k+QYdzsmwJnDGl2liObdloIKLZSY8Pu4Pjus1sW/PLs+q0x7y53dp0X1w3sIKiwEwYAAH+O55sVRcvvlZ7ntaiq/TFqpUj0a6M2ox3WQy4zaZWd8bGWcUayFg7Wb58BvpCp/3rezBiQEDBkg2ovHB2xY7fLpB4rp7NcC1Z4SmVPemlzHdZDbj3BYtBGSWaM14SrU0r5UX39bpr/OcOHbROTEADBhgdOLdE6flubekfrWuYEyxgt3Z9b1vdkzXQWZsLyeZ06g56tQCTV1UrNBq8aAEtToxMTFgwACj6LvHT8nTO2TJzVaSuUDf2nMbCXad38DVt89kXrNMWmIt5CqWouvkkRfkjyPnp0Do2AIMGCCh2Bsz+jnToW071TfrOqq0Ah13mdfc2+CDexkmu5U6t0Xz0umFWlMovk5j4r9O4MSAAQMkMuQ9d44o3C27PtIrfSZY+Ul814UJatuJ7SXVVTfLC29r1b+fGKlpwIABrsh3ZXCq+btf5ZaHdf9wikfdd14TvosT6wkstUAmVumKjw+/JiAGDBhg+ELeUx3y1GtScE1vxDO7vvf6IEwI9Wen5zTpSuo0j1aON247b+0lATFgwAD/jW6LPMd6P/tew5pxFVrinbq09zZc+qrQhZ3Y+nhMr7VuWS6W+lvlnU8GB8QAGDDAP6z3nJejPyjbdkr+MmsEpaw31YzvoktKTedUSmq+zjI99JzesTEQEJOXBgwY4J/Z5t8Py22bdOYk5ZyQF1NBl5eaXtimW8/SC3U+7dp75JtfzjnwxbBhwIDBxdYbPcd6P/xaGm7V8ZKMYr37fSEhLxq+gHheX4W47EbZueecaBgbBgwY3Ga9/YXeuMir72mDVarV2GyvaMY2UCIqxAtaZfISbaGf3yRPvCrBUN+HMHaBSyoBMGAwzXrjfdbbFZYnXtcSXaqHbDMa0bz09FqtcUyplvVPy5nOgbMgNgwYMBhuvZ1+2fisTKvWWGRGLdlmNAp5ad013aDl4QkVcusjAxu1sGHAgMFM6z3rk3ue0J0J6YUyi0IvGl0bbtZP4NwmbTvILJEVG+TPY9gwYMBgivX213o7fHLnFp0MSS/q67HCA1ByaGGbVoWzSnR6+Ib159hwnBYtwIDBydbrD8i9T6v1ji3UaGMhhV6UrF1a85vVhjOKZeVGOfZ334eZTmnAgMEp9A8Xhbvl4Re07zS9UJutsF7kGBsuluwSWbtZznoHPtXYMGDAkLycu0Vy2069NSGtQGY3YL3IeUlpuzY8oULWb5NQ5AKfcAAMGJIj6j0nOHjrI1nQIin5MquOWi9ytg3PadT8zdSleqC84EETAAOGUePcRpWv90rZcrXeaUtlYTsdzsgQG55Vp2ul89rk3U8v8LEHwIBhNALfvlDg6CndtZvmkYmVsrAV60XGzQ2367FyTL7U3CJ7fx/4/OPCgAHDSBOLDqTjNm7TZfdZpZp5zsN6kbk2nNcqE8r1XupVD4g3QEYaMGAYvZzz2x9rkSytQOY2skgSuahNOqNYJlXJ1v7CMBlpwIAh4YFv32H/jyNSv1ozctNqaHJGbiwMz67XXaoF18hXPxMKAwYMCQ58++tdG7ZpBDCuXDNylHuRmwvDk6zrlVZulGBXnw0TCgMGDMNIf7PVJ99JbrPmnOc1k3NGSM+gua16Hp1SLa+9P+DBuDBgwHDFOee+F0kgKMvX62F/WrUe/HnzInRuRnpmfW+P9OHjZKQBA4bhC3y375HJ1XrMX0DOGaGL9Ui3aY90dok89gqhMGDAcLn0t3Se7pCWdbpbY2YdzVYI/XeP9NxGfV5KbpB9hwiFAQOGyw18X3lXbzHKLqXZCqFLyUi3y6RKGVskDz8/uJQDgAHDfwS+HV4NfK/K11kLmq0QuozmrHnNusCy5AY5cBgbBgwYhhb47vpYhysIfBEahlC4SpsnnngNDwYMGC4Y+Pa9FyLdcv292sw5s56KL0LDUxWeZ1WFl9wsJ04PTjUBBgyupv9I/uVPMqteT+sEvggNsw23y/hyvV14x57BCSfAgMHt7rt+q95lNJ29kgglLBSebc0K37C+ry+aOBgDBpemnfse/hOnpXy5btjIbSHwRSjh9yllFMv8JvnxN9LRGDC4O/B9+2NNi+WUa4qM9yNCI7M2a0q13mnY35lFOhoDBte579rNmhCbxaARQiM/pNSkT1/zOglHhO5oDBhckHbu+8nRk1J8vaQWyALSzgiNXlU4u1hPwD/sJx2NAYM7ir7vf26lnSu4UwGh0U9HT12q6eitO/oSVKSjMWAwLe3c91RveEZSFuuYL2lnhJKkM0vT0Yvl+vsHF4kAAwZDir6hiNSt1oUAdDsjlIRV4fRCWbxM/vpbGFDCgMGQtLP9JP92SGY3SFYpgS9Cybu3MqdKy0MffENJGAMGU4q+O/dIVrFe6MuSDYSSvC1rlrWsY9OLlIQxYHB+0Xf9M3qp0ZwGyWvhBYeQA0rCuS3qwdfd0/sIMyWMAYPzir4i0nY7RV+EHBkKjy3UWcEOL3EwBgxOi31PnhXPtbr0jrQzQs69v2Farfzyu9CWhQGDE+q+1o8//iaTlzDpi5AJU8Jji+XNjwY3dgAGDMlkvX1P5q6PZGyRTF9K7IuQ8+PgFm3gGLNYHnsFD8aAIbndd8ureq8RLVcImdSWNd9qy1r98HllJsCAIVmKviKybrOelOfTcoWQiaFwqkca1/SdufFgDBiSx33b7tTYdwGBL0LmloQzirU12h8UNlZiwDDKRK0nMNwt5cslvYgtVwi5oDW6TLfa2RsryUVjwDBKsa/lvqfOyoI2yS6VRbgvQm6Ig1t1xmFihfxykFw0Bgyjl3k+dEym1zBuhJDr1nRMWyqZJfL590JfNAYMI4p95v3loOSU64ZnMs8IudCDZ9bpRcJvfyys6cCAYUTd98uf9Pw7fSnui5Bbx5PsEeF8efmdvpcD70cMGBLovtYT9v4XenXojDrcFyG3jwjPa1IPfmr7ea8IwIBhuN3X+vGND3UckFUbCCH14GYd/b9qsWx6CQ/GgCGRvPKunnbnNkguqzYQQueko//fItmwDQ/GgCExPL9LF13NbWLRFULoAunoqxbJ3U/iwRgwDDfPviH/L1/m474IoYt5cJt68O2P4cEYMAwfW3fqc6Xuy1sGIfTvHpwvazfjwRgwDIv77tAOC9wXIYQHY8Awcmx7E/dFCF2yB6fkk4vGgOGysJ+X53eReUYIXX4cfNcWPBgDhkt335ffsS73xX0RQlfQk3Xf03gwBgxDdF9r0+SOPZKyWHfc0POMELqS+eCrFslDz/NmxYBhaO77/heS5mHeFyE0TDs6FsuWV3m/YsBwcaKW+37xg95wMqdBHxveHQihYZC1q/L5XcKFDRgwXAD7ft+9BySzWGbV4b4IoeELgpu1myRlsbyxZyDTBhgwWO5rHUoP/iUTKmR6LbcsIISGf1Hl3Ca9x+WjbwZO/IABE/vqjyfPypRqmVqN+yKEEuXBs+slo0h+/G3g3A8YsNvdNxTSBNHEClnI/b4IoYQpt0Vm1Gqm7eBfA30ngAG7kf6xvJLrJbtMFtLzjBBKsPLaZHK1TK+RM15y0Riw6923cY1kFEpeO68GhNBIaGGb5FTI4vZe9yUXjQG71H1XP6xtEXlknhFCI+nBrZJZIktXDX4jAQbsAgO2ftz0sozJp+sKITQKWtSmKweWr8eDMWD3NV7t3KPraZj3RQiNYj34qnx54FlhQQcG7A73tT7m3++T9EKZ28CySYTQqM4mWcuiX32PYjAG7I7Y99hpmVipwwC5hL8IoSRY0JFWIF/vxYMxYNMbr2Ix9d2JVTReIYSSJQjW4eByOXpSGEzCgI11XxFpuE2bDxn5RQglVTF4UpU6se2+NGRhwGYZsPXjXVskhaEjhFCyDiY1rBkcMwAGbELj1avv6Y1gtD0jhJI2Dk7xyL1PCU3RGLBRjVc/H7Danhtpe0YIJXtT9M49NGRhwKaUfgNBmbpUlYf7IoSSuyl6TqOMLZLf/qQhCwM2ovFqyU0yroybjhBCzkhET62WWQ0S7qYYjAE7vPHqjsfZ9owQclRDVptklerIBg1ZGLCDG6/e+Eg3vdF4hRBynAensKUSA3Zu49XhY9rWP4d9kwghByq3RQc3Pv6WIBgDdmDpVy++ZuMVQsixDVmz6iWnUk6dxYMxYEeVfpdvkLGFsrCdxxgh5OCGrPEVUnYjxWAM2Dml31ff1dQNsS9CyPEe3K5tpHc/STEYA3ZK6bdYZ+l4dBFChmznWCwffWN5MJPBGHAyl37zl+lac8JfhJAxxeCZtfpa6/STiMaAk7j0u3azrpyk9IsQMmwqaVyZ1NzCmx4DTkL3tdIyH37FdQsIIWMbsq7Kly2vCmuiMeCkSz77AjJ5iSZqmPpFCBmpeU2SVij7DwlrojHg5KJprWSXsvAZIWRuENxq7TZoHdz4AhjwKHU+Wx/BF96WMYu57AghZH4xOL1Q1j2GAWPAyeG+R09ZKyeZO0IIuUC5LTImXz77nkQ0BpwEVN0kEypIPiOE3DKVNL1Gt1RGo8TBGPCo9l49tV3vDMlj7ggh5KZEdEax3PSAsB4LAx615PNfJ/RTOI/kM0LIfQ1ZKR755FsS0RjwKFGxQnIqZCG9VwghVyaiZ9aSiMaAR5aoddzbulM7EUg+I4Tc3BG9+mEhE40Bj2jy+eRZnfqdS/IZIeTmjuhWSS2Qr38mEY0BjyCNa2RcOTcuIITcnoieUq37d4UwGAMemeTzmx9Z1/1S+kUIkYhu1yB44zZhRzQGnEDsLoNIRKYulZl1soBnDyGEmmVes4wtkkNHSURjwAk24NWPSEYhazcQQqhvJKlNlxEtWYlLYMAJ6r2yjnU/H9BkSy6PHEIInT8WPGaxvP6/gVIdYMDDTNF1MqmKCwcRQuj8bqxmLcxNrdYiHWPBGPDwh7/P79LB34UM/qJRecG16MnPVp6ttnNk/ZP+X0CSBo3WWPDaTRgwBjzcpd9gSCYtkdn1PGYo4XMdC1r1XbbIUl6b/s+5zTKnQWbUybQanfqYVCU5lVp169fESv2HU6r1F8yo019s/1F55/85C1r4CqPEKq1QfvuTbiwMeFgN+NZHdO0zvVcoEY6b1+eR85v1kpnJ1TKuTNtKUws1pMguUbudUSt5rfGCa+PlK2K1q2LNa3ra74guu1PVenu0YU1Pzc2xsuUxzzXx+c3x6TXqylnF+jZMK9SP7vgytefZ9XqXXO//XSvFFDT83Vg5lXRjYcDDmnz+7U99i/F0oWE33fnNGrCOr5B0yyzHl8mchnjlytjyDdGHno28tjv86XfB/X8Ejv/t9/v8PRGfxH0itrz/kP7zeNTXHfZ5vf6jJwK/HAh8+FXwpbfD67dGrr83WnpDbGadZJVKWoGMLdY15rMsP+6Pj/m+oGHpxkrJl7c/phsLAx4mlq7SeIK9V+jK302L2tTzptVIdpk6bnapLGiJX31n9NEXInu+CB46Eujq+oe/xr3Rbn847O8K+oN+xeu9kKx/FQz6Q13+7rA/HvVL/HyHjvv8Ad9vBwPvfBzasC3StCY6tymeUaJ+PL5Mt+rbZowToys8XE6rkTmN52UQAQO+ZOzj2/tfWJcu8FZCV5CXW9Smm8NzqtTtMktlUXt81YPd298P/XE4oHFtn0fGo/5wSH20s9N/1lJHp7/zfIv9T7x9Dt3p1d9u/zmd1m+OhP0SG7Dkri7frwcCL7wVvuG+6Lzm+NgSzXhPqta9CnaOmu8duuzdWJtetAyYIBgDvpzSb99PFrTo6ivCAnQZ8e5Cy3fHV2iwO3mJ1N8W27o9vP9gINbTZ7oxbyio7mh7rW2cieNcV/b5/KHQQJQcCft+3Bfc9EKkamVsfLkeFCZVybwmYmJ0OZrdKBMqpdNPEIwBX0H1d9tOrWcweoQuKQVn55knVWkcMHmJtN8R3f6/0KlT/t7cctwbDPbGuEOPaxPix/5e7+/0WmbcV0s+fDTw7BvhutWxceV6dJhSLXktlGDQpY0kZRTLLQ9hwBjw5XY+RyL66plVz9pnNFTrXdimH5iMYskskSU3xV58K3zyVK+xxXo06OzPBicb3r68t9/vj8fsv7Pvz6OBLS9Hiq6LpVvl6jkN+h9IQIyGqPT+BdFRXAUDHroBW+Hv+q1aEmP0CA0l27ygVSYv1cGh2fXxu7ZE9v0RsOPdWI/f6+sNdp2C19ubo5Y+J/76p+DNG7snV2tqenotNoyG1Powrlxab8dPMOBLSj5b4e9Zr7aGzm3kQUL/8ZZZ0Kqzj2mFUnxd/NV3w4Gg3y7u+pzmuxdz4kCgN4g/fdb/xKvh3JZ4mpVaX0CjFvqvnFCKR77fJ+zlwIAvLf+8ms0baAhR74RKzbPVrY59+FXQDnm7w72tyybR2amKdqsT90R8O/aEi6+L2xXuBSz0QBd/RiaylwMDvtTw96+T6r48P+hi5/oF1pslrVCabot9/WPQDhADgd5OZlPxWh3U4a7evPTuT0OlN1o2XC0LsWF0wW4sKwj++FuCYAx4yOHv8vW6MIi2T3SBNqtWbc1L9UjNqthXP/Rarx0jugSvX2042JuX9r37SchzTTzVoyu9yBihfz4yk5dI6Y14CwY8tPD30FFdw8uTg/45WTGrXieLCq6Ov/9ZyLZer5usdxADNhz3vfR2eHa9Ni3ObeTkigYHwWPydaORiPQQBGPAFw1/rR+vu4fwFw0+xec2a1ViSrVs2xmWmM9tUe9/2LDVdxYK+tZv7c4u1d7XvNY4GWl0bhBceC0OgwH/S/hrTar98ZdkFMp8bm1D5wS+U6zxm5s2dp85azuNug4MsuHusH5x/jgcaLytJ8Wj17OTkUb9D9GYfNn9OUEwBvzv4e+9hL9o4OSuywQKZWFr/PPvtdwb7/Z3eHHbi++57Ozdbbnjf+FpNdajRHMW6guCi67HZzDgi1d/Dx+XTKq/6JzAN71I7n4iEu3WnHOiFzUbM7Dk82so3NHpv+G+ntR8DYU50aKFbbrWd8+XtENjwBcJf1dulKwSXhac1iW31ZpDa4l/81NALyoIkXO+xIx0hz/Wozb81gehydUyvpzHisdKg+Cy5bgNBnyh8Pf4Kd3fO6+JR8Xtm63mNOpRfeWG7khIA99OAt/Ly0j7rGWW4v37jL/2llhKgd5ySDqameBPvycIxoDPNWDro7Bus2QU6T02PCdufkFMqpJxZfL6+zpl1B0h8B2GUNi6gdj3yPORtEKZUUso7OrFWBMqpeYWPAcD7k8+W+GvP6DrfOc08JC4+u2QWaL9VgcOBUQ6fT4C32GqCvv8Xdac0qffBKcslZwKNki7OBHdopP0ew/oWzcaxYAJf63w9+Hnda0gUxPuLfq2SEqBLLsrGglbaWcC3wQ0Z2k6+pS/5PpYehFxsHtLPONK5dp7cB4MuC/8jcVlZr32alKgcueRfE5jPMUjG7dFRLzRHi9p5wSmo+NeifluuC+a6tFDD0+cG9WkqaZjJ60gOI4Buxh7JPzld7Q1gPDXnefxGbUytlhe361F32BA86WQ4H0dOij84HORFI/urczFg903j5RRLLc/RisWKWgLzzUydSmHcTe679SlMqFCPrfuVPD6/NR8RwCfr3eD9KvvhtMLdb12HovnXJVzatZum8lLJBweSENiwK7DbgH45DsNf6lIufAYPrFKptfI/oMBir4jPaFkDSmJeD/4MphVQmu0G5++tAJ5eofbg2AiYGlcIxPYEuC+caOcCpnbED92AvcdPRu22rK+3RsYX66pCJ5BV7U9Tl+qzfC9vTgYsOvCX3v35DGd/c0lA+Yq922X8RWyoDVu36xwFvcd1ZKwiPfnA12TKvFg922m9PRtpoxiwK6cPrrjcb36l+Ubbot981rj9qu/owMTTAoP3vdHoNeDOQ27pgNjQoXU3UoTllunj3p6NA0yq572K3fVfec1xc+cwX2TzoP3HghOqJDptXiwW5Tbou3Qh4+5dx7p/9wc/r76noxh+shNJ+7JS2RWnZw4ifsm6ZqO734OZpfqmZiqkBu0qE3v+rz7Cfe2Yrm6Cat8ub6RCX9d4b4tGlpNrJJDRwL2/QqQnHHwx18HxxbpahQeTDe0YukGpNreLiwXziO50YDt6aNfD+ruyQUctN3xnM+pj2eVyve/Bul5Tv44ePt7oRSPzOfZdE0r1hsfWDXBKAbshvyzdc66bZOWH2i/coPmNen+992fhHBfB8wmWfPBm1+MjMnXXjk+vYanplplYqUsXUUTlqvar2IyrYb2K5c84fExHtnySlh3XeG+TtjREbD2ZN38QDd3NrioFeu4G1uxXGfAdpbjjQ9Z/uwO923XMbObHugW8foDbJp0TBAcDvlFfJUrY+PK8GBXtGJt2OrGViyXNmHVr+ZSUle0PedUSNmNMYn7wiFdQQxOKgbH/B2dvhm18ek1PKqmb8WqldzmviQlBmxs+5X1vT1xWrJKZB4ffeMbLGtlSrWcPKVX4FH6dV5TdIe9qFKbouc18ZE2/Kyc4pFPvx9oksWAjR3/ffRl7X+m/crwwlKzNl59+GWQkV+nDyY99Xp4jIcg2HADzi6TG9YPNMliwMbiuZrLB81vrUwrkPufjmjbM5lnJ2M3ZLXd0ZNVStOGyZrTaF1QGHHXQLCLDNjObOz9Q9IL2HVneum3UsqXx0R8XV1YmMOLwV5/rMfv8/lm1endkZybzR4I3rnHXVloFxmwnX+++0luXzBcsxtlXFnfxitKvwYkor0aBH/4VTC1gBWVhrdMNq6hC9rI8d++n+Q2a28O52iDk8+pHnlmZxj3NSwOFvGu2dQ9tphEtMkLcyZUyFmvi7LQbjFgO6fx9V5tzGGs0OBD9IRyqVkVE/EGAtiWQZPBXn8k4g+HfPOa4tNIRJs7EJxaIC+87aIstFsM2M4/r90smayfNFdz7eTzXwGdO6L3ysSOaDsRjQEbu5aySmpuIQVtWP65L5sxt4n8s7lNHO3a+bzphQiXHZmKz0pE37A+Ske0wVno7DI53emWLLQrDNjOZnz7C/lnk9duTKmWxVfHYz2+UAirMjYRHY96T532T66S2Q187I3NQr/4jluy0K4wYDv/fMfjXH9ksgGnFshHX3PboOmJaGs91tbXw6kFBMFmZqFzKqX+VlLQxvU/57UyR2hs79W4Umm/IyripfJrPKGgPx7z5V8dn1LN42xiJ0eTerBW/F2QhTbfgO08xi9/aIGQ/RumPrFZpXLgkNV7RfXXHd1Y738RSvVgwGZmoVM8ssMdGznMN2A7//zQc3rjFflnIxfoZBTL2ke76b1yFSLe2tWxCZXsiDYwoTW+TK65mwjYIEpvEBJWZq6QbZBJlXrlUTzq9WLA7qDTCoK/+SmYXiQLSGsZ188xu16m1Ug0Zr4HG27A9v2Dx0/p/YN8so0Mf9ML5T7r0oUOeq9c1RFtBcFtt/eMK2e0wcAg2CW3E5puwNY37+V3tEWW/LOR4e/kKjl12h/tIfx1YxD83S96WzBBsHll4MwinVvpryFiwA5ewdF+h4yv4JhsZvX37icIf90aBPvUg5vX9kyooBJsWhZ6Wo0svnrwJAsG7Dz3jcb0ezm7nmOymavbj56g+uvqIPiL74NpBMHGKbdFj9d/HhuoJGLAjsw/f/GTlhMIf82rEmWVys0PaPMz7uvydujKFbFJVQTBxg0jFchzbxleBjbZgO3iwfqtXABs7AH55/0Bpo+YCd65J5TGllnzhpEqpO12wxuhzR9DKruRASQz99XVrdZrB33svnJ3L3S4y98d9i1oiU/nnhXjhpGm1/SGv6Z6sLEGbH/Dznr1gth5fKCNOx2nFsiuD0Mu3Pzs9ert9B2dqrMdA7L/idfrd1tC3g6CH34+wqYd887ZaQXy3T6Ts9DGGrD9DXvvc0nJ57E07Wg8s1bmNcVDIV845Pe6w3TPdvrto0Z32C9xtZwLK+oPh3sblDo7XWHGXq9fYt6/jvvHl2tfHg+ISWXg9EJ5+HkM2LEF4LWbJLMEAzbtscwolnufNH/6yPbdgN8fj/Y5btzn7fTvPxj47Jvgmx+EXtwV3roj/MyO8Eu7wm99GPrih+DvRwIB7Uvy2b8+2uP3+fQPMduJfdY8Usu66ASmDc2KgCdVydJVzAE7loJrZNpSKkOmtV9llsivv5vcfmUHr7Ee23d9f/4VeH136JaHukuuj02r0fbv9ALNzqmK9MdU6+djC/Uy85l1UrEydsfm7l0fhU6c7HXunoimag3+col4d30Y4o5Co570ZpnbqB08obCxZWAzDdieGzt5Rt9HfI4Nyz9PXiJly2MiPo31TPQSe7RGxHv878CTr4UrV8bGlUtqoWSX6stodqPOvOa1qdMsah/QwrbeOZzZ9Ro3ZJaoK0+skobbel5+O2wXSiXmNbJI7PX6I2FNFcyssyb+OXCb1e3x1c/GZqHNNOAYBWBz889phfLka2ER79lO01yk09trvd//ErjhvmhOhca1k5doF+Eiy3EXtMqCIZxR8lotP27TACKnUlI9MrVGL4w6eET//HjU2+E1rXZuB8GrHuzOLCULbVoZ+JEXBt7qGLBjCsB3PE4B2ECNK5NDfwXsYM6cVl6vvyeiFrL3t0DL2mh6kca785r003uF8ZxtxrMbtHCeba0uOfa3Zu9DQb9JDeS2AX/4VTCtEAM2a+CwQupvpQbsQEqYADYu/zxpiVSutPLPBk2y2juNA37fmk3dGcUyrrw3yTycX7rm3uJoRrHu73zkhYhEfSYNcWkWOuQPBn2z62UmWWimgTHg0Z0A9gdlYoWm4PgQG5aP2vxSxJj8c6fP39Wl7rvni+Cs+nh6cW/dK6E3WMxp1CV/nmvie3/TUNgf0BOAMUHw8vuj2WUEwUYFwekFsvcPM8vABhqw/U368mctffEcmrd+8pcDhvQ/W33O2uR8z5PdKR495o9YB+/Cdm3UGlskz+7Qanq4S48CTuesZcBvfahrKSk8GdX20bcU2ryrCY014MdeFjbjGJaMmlYji9risW5fMGhC0dcqxPpqV8dSPXq2GOGsaZ4VCo/Jl1se7BbxRXscn472ev3RHt/JU/5JS0h9GdUInV0my9djwI5KQbfeLkzlm6SFbdpSd+vD3QZULu1u5zNn/Iva41mj2rWb1xpP9eioUqzHF+8xoS1LxLv0Zi5HMu7kvazv9Y4BJ7/7isjcJplRRy+GUQfhtAJ5y/n7n+3Y9+Rp/7zm+PgKWdgeH/UvbEaxVN0Ui3b7oj3OzkXbWegHn42kcwGaYbMPFXK6w8A+LNMM2F7B8ddJjZb41BqmnAr565g/HvU5dwBJG4Vifq/Pl9sSz1H3TaLtnnq7VNwXDju4J8vuw/rsu2B6IRGwUYfvFI988p2BfVimGTArOAxOQxVcqw7h3AKw12dfpeAruzGWXSYLW5PrHZdaKMvXR3UgyrEzXl5rnPpsh3/qUl0ZlsuzY9D4w6aXMGCHdGBteEY7PDFgwxoxVj3o7AKwz6pQrtzYrfFZezJ+kcfky+MvR5ye5BfxLrmJMrBRj//4Cmm/gxS0Q2rATWs1XUkHlmGjCC+97eANlHbj1ctvh69anNSfzLQC+eqnoHNvmrKz0Hdu6c4s4WIGcxJgM2r0OGVeH9b/mee+IrrDjw4sw57AsUXy0z6nTgDrrquY98gxvbN2ThJPyOS1ytRqmd8UD4V9kYgjr22wr53YsSeUxhSicTtoTxnXh2WUAdsdWCdOy7hSPq8GuW+zrjKeXiP2pTcO7cAS8TbcqvcaJXlYttCqt93+WLdDzzqaaYh79/0RyCzRjZ48PsZkoVML5MufTCsDG2XAdgfWZ99pyxz5Z5PC3ynVvVcQOnLuqO+22jH5jqlK6sYxZ964bJ/S/AH/DPtqQjzYoCLU09tNW8dhlgFb35gnXxeyT4at4NBVOBuiDm0OCnX5o92+vLb41KXOKIvktemFEM1rekScOvAl4itbHuMuFqNeAiVy04MYcNIb8MqN+r6m/8KwIQSH3sFgh78v7QqP8TjpM7mgRU+xdjeW4w49vbcybIiO4z1gVhqs9EbDmoZNXEVZyi2Exh1+0wrk3U9CTmzN7Qro5pD8ZY4JfweC4DJpu8MKgp0WBdv7sDa9EGEbvDkG3GLdS1hr2r2E5hiw/S2JxWVmLbUf0w6/GcXy828BiTusJGmHYh986chb4uc1SXapHDwSkJjDPNjOOrz5AY3QpnlwRrEcPj7Qb4sBJ10L9OHj+k3CfU3S3EaZvEROnvJHux3WAt3pUye4+s7o+HLnGbBm/otl47aI4xIPtgF/uzeorwIyYQZlwlI98tE3A/22GHDStUB/arVAU/gxKfydVSfzmuORkC8UcpIBW7fj+U+e9k+qSurZ339b/7lUFrfH4z0OW//p9frjUf+Ro4Hx5TxBBvWCtGtfwlOvG9WHZZABW9+SrTu1Xrionc+rUc0XJdc7bwbJrkTueN/B98PntsjYYvlxX9BZ80j2JJLP559eK3Ma2AhtTgScVSKrHzFqFNigFLT1LVm7SVhBZ9QAfqtMrJSmNc7rBrILwDfeH80uc+pUut1//uiLDus/9/n9XUEd/VrYFmcjnkmvgklVsmQVXdBJTO1qmcgSdrOOvePKZIUDh4CDQX9PxLegNT6j1qkekNcqOVVSf5t+8X1OW4LCKLB5ybAZdTKv8byuWww4OVqg+35ir+3mkTNpCDizRO7c0u2sViC7DHnwSGBcmcML8PUypyHe1eULO60AL+JtWtMzsZLjuFH9mDkV0uHDgJNyBinYpe2ycxv5pBrVeZFeJJued1gW1G7Efe+zkBMHkAaVgbNK5beDDpsBs/P/198bTf7l2+iSToRjC2X/IXPKwIYYsD2D9MdRvTOH8Ne81send1gXEXY4rAPrsZccvwsir02//u9/5rAtKPYB6JaHurNKMWCj8mGp+bLnK3MaoQ0xYHsG6fMfmEEyMQIu7LsJuMNhBrBmk+NvpbWX4D+zI+zEDMSdj3ErsHHH8QJ5ajsGnJQzSC+9rVdWMYNk2Jk3rVB2/M+KwJxjwJ1WDbL9zuiECmenoBe16yTShm0OKwHYGYj1WyMZxbwQjOsIeYIUdFJGwBu2agqa5800Ay6QXR86zICtJiDf0lWxSQ7vyV9ovfLWbHJYE9zZDjXgh56N8EIwahKpTSZUSNsdNGElZQ14+Xrh/hPzxpAGbmJwjgHbYzCVKxw/BmPfBXnzA4404IdfiKRjwMat5Sm+jjngpGTJKpnEEDAGnDxzqDcaYsArNzrSgDe9iAGbZsCz6mRugzmjwCYYcP93YWGbTGMI2MgU9MeONOAlN8UmL3F8Cjq7RG550JkR8POkoA0cBZ5YIVrhwYCTagi4JyrTa3T1K1chmdeE9eYHTqwBextu68lx+CKIRe1W28tjTjNgqwnrgWcwYBNHgYvk0F9ixqWE5hjw32dkfBkfUDPHkF7b7bAxpP5F0E5vSrC//o5bB22PId37ZCSzBAM2rSaVWiDf/CJmXEpoggHb/ej7D2moRP7ZyEUcz7zhyEUc9zxpjcE4fA44tf8A5DQDXrOpO4s5YONeCCkeeesjQ0aBTTBg+9vw+Y9s4TA2AnZcBGYb8PNvhVMLTNiE9eUPQWddhtGbgbgvyliEmavxtmPASWbAOz6QVA/pJjNH7+9+IuKsGqRtAF//GEwvdHYNWNffV8rxv/3RbuddxtC8xqrBY8BmGfDYIlm/zer7wYCTx4C3vKqhEgZsXsknu0xu2uiw6wi9Xn93xH/6jH+Kk28HWdCqYwX5y+LxqC8Y9DsLM+aw0T9fCFmlsupBasBJg30Ouv9p1mCZufsmp0Ja1vWIeB0UgfV7QPmK2JQqx94HbJ1+VlhDwI67jDnW7VvUHp/OXKKJL4TmdYwhJU8EbJ2DbnpQsrn5xNDdN6U3xEQcdiO8XQa+f2tkrGP7sHoXcb8XclYB3uv1R8J+v88/o9aaS+Q5Mu+FsJxNWEk2htR6uzh98T262O6beY3xSMgXctSd8OeVgZ05mz63SaON4yf9sR6HFYDjUf+Ro4Hx5TxBBr4QptVopnPQFiYMeJSpXCmT2UNp6O6bSUvk5CmH9QH5/f6uLn804lvQGp9e67xEaF6rum/DbVp99zkq+2DPIH2zN5hRzAvBxBN5vcyuPy/6woBHn/xl7KE09pHLKJaffwtI3NvpdZ4TrN8W0fZAp+Vm7C3cO/Y4LP/c/2V/84NQWqGzZ8DQxU7kk6ukK4wBJ03+WUS/MTPqMGAz+x7TC2S3fR+Do5xAh2Fi3kN/BbLLZH6Tww49M+pkdkO8K+gLhxyWeLCr74++6MhzDxqKJlTI6bMYcNIYcCwm02tlNougDR0FTi+ULa9EHBeK9Q+kXntPz7gyJzUoLLTarx56NuK4Q09/9X3Fxu5stnCYmxL785gYsA7aEAP2B2VSpYMHLtF/jwI/4LxhGDUDy4B/2hccW+Sk0+HsBpm8RM6c8Ue7nTf9ZQ2AeStXMgRs6CRSq6bE9h0yYRTY8QYc5SYGdwwelK9w3iTSuUHwDfdGs0qdEQQvbNfq7yMvWOGv13lf7XDIHwz6ZtXHZ9WTEjPzRD5wH0MMAx7dIWDLgA8d1aQEp10zDbhFmx5n1knAr/OdXgdagsS9R475x5c7IEljj3nMb4qHw75IyO+46LfT+mr//mcgq1RycV9Da1KpHvnoGww4abZw7D8kY7kKyVzltuhG6P1/OK8Rurcv1wqCH3spklKg8WWS5/dSPPL+ZyEnJvz7W6Df/SSUWsBWAEMN2LoQaddHGHAyGLD1DfjpgPaM0HBh8Jk3rVDe2BNyYk9Q70xwUI2hYkUsJ4nXxSxs10zSivXOm/0d1AL9wLaILqblhWCoAacWyCvvYcBJY8BfcBeh6QZs3YnU7dCwTFOjvt5E9IQKSc7aZF6bTKqW3JZ4OOTrifi9zjRgr8+6B2ldNIe9eOYacFqBbHsDA04aA/7wa0nN5yYGk/seJ1VJzS0xjcz8TsXuiH7vs9CYApnfklw7ihe06LEgu0x+OxhwYu9Vf7k9FPJHQr55jfGZbAUw14DTC2Xzyxhw0hjwu59pBIwBG9uH1ax9WDNqxefzRyJ+r9epHmzHZ1teiYxZnERB8IIWmdfk7NLvuR1Y+/8IZJXQgWWyAY8tkoeeFwOuBDbEgN/4QPviMGCzh5HSi+TbvUFHO4RiefB9T0auyk8KD17Qqu57lUdeeTesdz46+WtrF4BfeTecWkAB2HAD3vAMBpw0BvzKbi3LY8DG92E99XrYifuwBgXBwYD6xD1PdI/J10BtFDOleS16Yd+YfHlhV9i5jVeDdmCtfrA7q4SOEMMN+J4nSUEnjQE/95aW5TFgk8vAbTK+Qtru0AbdTof7hK/Pgze9GBmTr9n1UWkXWtgmU2u07fmtDzTz7HX4V9Xv9weD/njUl78szr0sZhtwZoms24wBJ40Bb9uh4REGbHYKema9zGmId3U57GLgi8XBfsuD3/gglF2mLWYjOR+8wDrQjCuVabXy7c/adeX0r2ffNcB69cU4luKZvgkrq0RufQQDThoDfuI17YvDgI334Iwi+eFXqwzsfMOwQ2ER74FDAc818VRPb6A/Au+v2Y2adq6/NXb2rN/xNfXzC8Db3wulcgmSCwx41YPCLuhkMeDHXsaAXVEGTi+Ux16OOL0M/M+yZbzHd9+TkYximVCu54wEXSOf16axb1ap3ua2dXtYxCdRf4fXqK/kivV6CRITwGYbcHaZrNwo/auIMeBRNuDNL2HArpgGzqnSuM2AdqFBzhEOqXns/S1QuzqW4pGJSywbbhu2zMGiNu32Gleu3Ss33Bc99rf+3wUC/k5Tvoxevz8U9PdEfLkt8Rm1FIANN+BxZbJiAwacNAb8yIsYsCs0u1GmLpUzHf6eiN/rNceDvd7eNR0i3j1fBKtWxtILJbtU5jTq60Yj19bL8d086/fOqtdOq4xiab09+v2vWvGNGxT4nrvk5Kd9gcxiJoBdYcDL12PAGDAa8V7o1ELZ/WnImMrloFDYvstWxPvlD8Eb749OWaLdhePLtQEtt0UDWfXjVjXXBa36T3KbVQtaev9JXpv+GjvenVGrmbrUAr1Iau2j3b/8HrD/ZK/XqLPLuQXgzS9G0ikAu8OAb7gfA8aA0YgbcGaJ3PpQt5EG3G/DgUCvDZ8+43/9vfA1d0Vn18czivVDnlkiORV6Y+CsOpndoCHynEb9yYw6vTV5QoVGummFYq2Ciq/c2L3701DA77P/NJ/Pb+oXzT64LF0Vm1SVqAo6woAx4Asb8KPUgF3TCD2jVq2lO+wLdfm9xrqJOmVnp2babe8MBnw/7Qu+sCu87tHuxjU9hdfF5zXFZ9SpE0+r0Rg3tyVeckOsdV307ie6t78X2n8w0BPp9d1IyPrTzP1i6QBSj+/oCb3oYl4TjwkpaAyYJiyUsOVNGWbspByatZzt1FapSEi3HNuGqor5IiGfz6fX3+r9jD5/d9inXc39vyDuDQV7XdzrNfyrZOefX2MDpZsMmC7oZBpDegUDdtEwUkaxrN9q1DDSELu0zp5jqKEufzjs77YUDvu7unp7kTo6rV/m9Xvd8rXpHaduu6NnPFcQMoaEAY+8AT+1HQN2URZ66lLxXBOXqC8Y9LsWn89vt1PZ8rn16+D16vTRmTP+qUu1HM4D4pJFHLc8xCKOpDHgZ3ayC9pFym3RIPjHfeasxIIr3L/xxp5QWgEXMLjFgDNLZM2jwirKZDHgF9/GgF2WhS6SDdvclYWGCxuwlX+++s4o+We3PP7WZQx3Po4BJ40Bv/Y+1xG6Lgudv0yz0F0BPMi9aP65x3f6rH9KNflnFxnw2CK572kMOGkM+K2PJNWDAburF3pskXz3iyt6oeE/+p93h1M95J/dZcAPPKtv/h4MOBkM+L3PJQUDdl8v9J2Paxa6AwN2cSeaiLfxtp6cSvZvuMiA0wvl4eeJgJPGgD/+VjgCuy0LPbNW5jXHIyFfOOSnE8ud+WeJeQ8fDYwvZ/+G6wz4idcw4KQx4G9+0RowBuy2tZRphbLn8xBZaDfnnx9/OZLG/meXGXBagTz3FgacNAb86x96JiIH5TYDHl8m194TVQP24Ueuw9qY7Su+LjalmvsH3WXAqR7ZvgcDTgYDtgaxDxxRA+YhdJvmNOrVuSdP+WM9Pi9paPeN/367N5hepB15PAuuMuAUj+z+DANOAqLWKrIjJ3QybAGfTve1YqUVyDM7w7RiudOAb3ukO7OE8V/XLeJI8chnP2DASUDcMuAzHTKhnI+mG1uxJldLyfUxEV+AgWA3tV91R3Tf9fQamV3Pydt1BpxWID/ux4CTxoBDEb0MdW6jXk7OB9RdHtwiGYVuuRwJzm2/euXdcFohrZduPHanF8qBP4Vd0MliwCJ6EJ5VTxnYja1YWaWy6sFuDNhF7Vc6/uurWhmbVEXrpRuVXSJ/nRgoQWLAo2fAfT9Z2CozajBgV7ZiNWj+48xZf083rVguqP56Nfz9aV9wbLFey8Hn322a1yQ5ldLhOy8Aw4BHmaLrhGkEN9eEnn6dViwXtV/d+lB3Fu1XLsw/W7MPU5dKpAcDTiZqb5GJ5KPcWhOy72aIczeDC9qvot2+M/btCw18+N34sM+o058MKkFiwKNcBr72HhlfTkeGq7diffAVrViG02GFv0++Fub2X9ca8LSl4rnGkLjRBAO2G+HWPKqjwDyTLjXgVplQIc3rekS8PrZimUtXly5dWdQWn76UepNLn/RJVbLkJgw4abBvpHrwOb2jiguRXKvcFj2B7T8YkJi3k1Ysc6u/uz8NpRZQ/XXxAtpyufpuE/LPpkTAlgE/+6Z24mDAbn4yM4pl7aPMI5mLdflg7eoYlw+6efldZoms22zNIEUx4KQx4Hc/40pg5pF0Mdbps/5oj5d5JCOnj374lekjty+CNuYyYKNqwD/s0wiYxJTb55EKZfOLEeaRjOx/FvHeeH80u5TH3NUGnFYgL76NAScN9jKUQ0e1BkxfhttHFGplblM8HPKFu/zEwEa5b8x75GhgXJnuYeCj7mYDTsmX/32FASfZGFKnXyZW6DpoPqMuD4JTC+Slt1nKYeD00Z1bujOKmXRwexd0eqHs/V0MWARtlAGzDhoNLOW4Oi5RX1cQ5zIk/I12e0+zfANZyiqVo3+LAYugjdqEJSKF18o01kETBFtB8K4PQwTBJoW/Dz8fSefuI5ePGtp7KKslHGEMKfmC4Ma1klNBgwZBsExeIuXLuSTYkPC3O+IP+H0z62RmHcdr1zd5WCFW72ufRRzJ0odlFQNufUSyWIaFrAc1zSMffMlmSkPCX3ZPov41WFUrzcnaGmLAdjvc5pe0Ps8oMMprlYmVsnRVTIRWaCeHv35/OOwPh3xzm+Izagl/qS7JuDJZvt6QArBpBvzWR+ziQANBcHqBfPY9QbDjw99n3winEv4iawZpbJFsfNaQFmiDDNj6Zvy4n10caCAInlAptasJgp0c/nb5u8O++c3x6YS/yDLg1AJ5+R1DhoANqgFb6Yjjp2RcKR9TdE4luEA+Jwh2cvj73JuEv6jvVN0mqR75ai8RcFJ2QcdiMr1WZjdwWEYEwYS/yMAjdUaxHD5ODThpR4Gv0ykxHld0bhD82XcEwVR/kRFDwEvNGQI2yoDt78eyu/W2SMrAiHZopzc/h2h+RucfpqfVSP7VRkWM5hiwPQq8fqu2ydEIjc4LgguZCWb2Fzm+ADyhQtpuNyf8NcqA7aa47e9rlR4DRoMWY5VZi7GCLMZK/vDX6+8OewN+/8xamcXqK9TfAt2mwdW9Tw2EWxhw0kXAOonkIQWNzp/fb9Xphbc/Zju0E8Jfb+/m5zQ2P6N/zCC9stucGSQDa8BnOrQGzIcVDQqCp1SL5xq9IinIFUnJHf5Gu71nzujFR7O5+Aidn4JOK5Dv9xEBJ7EBi+i3agaZK/TPILhQXn6He4IdEP7etaU7nXt/0T80oUxDLGrASU3dam18zcOA0flB8IwamdcUj4R8kbCflujkDH8l5j181D++XOY28aFF5z+/dfqTQeEWBpx0ZeC7nqARGl0oCLZSWI+9FCEITl4DFu/yDd1ZpbRxoMHzhDmV0nCrmHELoZkGbFfmX9mttXoMGA0+RDfLrAYd5D/boYVGL1FwMtFpue/P+wMZxXxW0QU6sMYWyd1bjCoAmxkB//y7zn2SgkYXDIIziuXOx7t1JhgDTjJEvE1reyaU8/CiC7VAe2T7HqNaoE0zYLswEAjKpCUyt5FPLbqA5jZJdqkcPBKQOB6cNOGvtXnjw6+CqQW0T6KL7pTdd5AI2AkUXqNLy3iS0QWHGcaVynX3REXIQicLwaBfxFd0XXzyEh5bdIHi0ZxGnSQMGbQF2kwDtrMTKzZIdhl9HOgiz3OLFim++oHllMkxetSh4e+Lb4VTPTotxucTXXCOv+RGA2NFMw346R2ar1iEAaOLdFROWiLlupzSy16OUe987o5YiyfrZCbj++girRtZJXLLQ6YVgA00YLs88M1ebYQmAkb/spcjpUBe381yyqRofr7v6Ug6iyfRxTqw2vR9/tLbGLBD+rC8AZlYRR8W+o+9HHMapKvL1x32UwweNfeNe//8KzCujM0b6N9SVukFsvcP0zqwjG3C0j6sa2VaNRkt9G95rfRC2bjN2suBAY8GPmv0aNmd0XFs3kAXUW6zzG6UKUsl3G1aB5aZBmznKG55SMsGJLXQv40kNcq4Mjl8VEeSCIJHZfTo468ZPUL/1bFRLZUrzQwUjTXg3n1YGDD6r5GkZXfqSJIPSxxZuoJ+ifo818SnMHqE/rUArDuwnjSwAGymAdtFggOHJaOQBxv9dzE4tUA++pqRpFEYPdr6ejilgDQV+g8DTvHIO59aBhzFgB3ShyUis+pkVj0ejP57xHDx1fFYjy8UwhlHaPQoFvWeOu2fXMWlv+i/1CKZJXLsbyu4imPAzvHgprWSU0FzB/qvbqx265akl61urA78cSQMWMS7ckM0g0t/0RCmFfJa+17s1IAdlIV+/BVtc6UMjP5Tsxv1srPjJ/0SpRtrJHqvvv4xmF6oDa589tC/d2lkl8ny9Vb+OW6gVZlswN/9qpENN6ugoTznWaVy/b1WNxYGnEjstc/F18Un0XuFhraC4+V3zCwAG56CDnfr5a+zG3WXNx9lNJRurA+/CrIbK9G9V0+9Hk4tYO0zGsIQcIu2QB/8y8AVHIYv4rCpXS05VQTBaKjdWAvb4tFuurESVfqNR70nTvpzKum9QkMrANfKvKbB3bUYsBOmga3j0uaXKAOjS+vGeuhZ7cbiquDh33vl0/D3mnuiWey9QkMuAF9/r7Hua7IB2/mK7/dJmoenHV3CbqzsUjl4OIAHD3Py2eq9+uBL9l6hSysAv7Lb2PyzyQZsn5hicZleK7Pr9QpYPtBoKIfuCeVSf6veVBjANocr+ez3R0L+nogvrzU+pQYDRkMtAGcWy5HjZk4Am18Dtj249XYZzzQwGroHt+rmne3vcVPh8I0eWYO/9z8VSePOQTTkAvC0Gg2CTZ0ANt+A7azFc2/pza+UgdFQn/xmvRl+eo14vb5oNzcVDs/g7y+/BzJLZB4fMDTk/HNmidy2SYxcAe0OA7ZOTX8c1Ub2XFLQaOjdWG2SUSw3PdDNWPAwDf56K1fEciqZR0CXVgB+/wuTC8DmjyHZLGrTbAaVJ3QJ9adm7Yj+9FvGgodh8PeZneFUD+6LLq0dcmKFBIImt0Cbb8B27mLdZs1mkIVGlzoWvMAaCw6H/ITBl7nzOeo9/jeDv+iS+zByqnSLg/EYbsB27uLjb7Sthj4sdKmJ6LRCue9JxoIvd/DXr+Fv2+06+EvvFbqk/HNagTz1mr69e6IYsMMbobu7ZWo1OynRJWtesxaDf9oXIBF9qZy1Op/f2BNKYR87uqwNlL+bu4HSTTVgy4Pb7mQYCV1OKmxSlRRdG5e4ryuIq15C8jnW4z3b4Z+6VFvKOfiiSx1Ayl/mhvYkFxiwfYB69T1J9VAGRpe5n/LhF6xENEHwpWydvP5ebvxFl5N/Hlskdz9p+ACSWwzYzkKf6ZBxZbrXm883uuREdKNeVvjbQRLRQ+t8tpLPuz8LpXgYPUCXs40utUC+3mt+/tktY0g21as0nUg5Cl1OT2allC/X/ZQkov8z+dzTrSGwLjOpxYDRJeefZ9bKnMbzwicM2OHDSNYxautOVmKhy01Et+qH57GXSEQPKfm8cgPJZ3SZ4W9midzykCvyz24xYHsl1vFTkl3CSix0+ZsBskrlwCErEe3Dai+UfLa2Tr5vJZ9JNaHLM+AUj3zynSvyz+5KQYtIxQqZvIS0GLr8RHTFChLR/5p89pN8RleQf67XtnmX5J9dZMB2Fvqp7VreJwuNLtuDUwpkM4noiyefl5N8RleWf77pAbFvkmUMydAsNJ91dGUd0fvpiL5g5/OnJJ8R+WcM+OJU3UwvNLrSRHTJ9XERXyiE8/av3fB7vb7pNdrCSvIZXXb+eXa9i/LP7jJgOwv9/C6y0OhKO6JTC+SBZ9gRfV7y+Zq72fmMrmj/RmaxrN3slv5n1xmwfaTq8MmEcjZyoCtLRDfrsp7vf+Wywt6dz9v/F0rJJ7GErij/nOaR7/e5KP/sxhS0iDSvkwnshUZXloieUi2LlullhZGQ5mDdSafPLzHviZP+iVWaPOSDgS47/zxtqa59dRvuMmD7Zqt3PpGUfHJl6EoT0emFcvvmbk1Eu3UsOBDQ8Lf+1ti4ch4odEX55/RCefh5d+WfXWfAdhY6FpcZtTKrnm4RdEXKbdFi8EdfWYlo9wXBndbajae3h8dw2Ta64kcps1iOnhiYWMGADW3Fso5Xt23S7zetWOgK82ba91snPp/PagN23dKr3w4Gskp1RxgfBnQlBZ2JVbqr34W4zoDt8v7PBzR24diOrjQR3SZZxXLNPT0iXp+bEtHhkF/ivqLr4jkM9aErfohSPfL6+wNVQgzYfAqv1T4astBoGNZjeeS13WH3TCV1Wp3P9z4RSSvUWjifAXT5aaRmmd0gU5ZKd7eLxn9dbcA9VhZ6G5cjoWHS7Hrtqz981C9x81dU2snnT74NphWyVA4Nw/RRZomsfljcs37S7QZsH7L8XTKxQi+e5BlAV/4SmVAhlSvNv6fBXnoV8Ptm18en1ZBAQlccAbdIeoHs/cNd479uT0Hbje4rNkh2KZVgNDwenFIgDz5j+D0N9tKr6+6JZnLjAhqONsbJS6TsRtcWQt1qwPZR6/t9unsFA0bDM0rRrLOMX/9o7Hose+7o5XfC3LiAhq39Kl9eedd14780YfVSdD03BKNh68aaWiNzmyTY5evp9hvWkGW776EjgfFlLL1CwxP+zqqXqUulO+rG9iu3G7DdivXiO3oEI5mGhutEn1Es199r2lSS19s7d1RyfTynkqQRGp7tV2OL5fbH3Rv+utqA7QNXT49MX8pWLDTMU0kv7TJqKslrlX7v2mLNHbXzXUbDs/1qbJEcPi5u236FAfe1YlnHrnue0tId80ho2KaSGiW7TP44HDCjIaujQ913z+fB1AJ9afL9RcMzOFAuTWtdXgJ1twHbx67jp3QQjQsK0TC+XCZViefaeDzm+LuStPQb854+65+yRKbXkihCw1asSfHIp9+LC7dfYcCDWXa3jCujsoWG7/3SrmmVtY/qXUleJxeDg0ENf+tWc98RGs72q6lLxXMNzuN6A+6dR9ovaYWc7tEwl7hSPLLro5AmojscvHLy4RciKQXMHaHhDH/HeOTVdweaYTFgt1N5k0ys5C2DhnnKIqdSjp5w5IrKDst9P/8+mM7KSTSsz8XMOplVd14zLAbs9las9z+XMcwjoeEuBudUSOmNMRFfuMvvoFx0p89vXbDom1GrVy5yMEXDGP6mFcgjL7h6+ggDvgCL2rUyQSIaDacHt2t1487HHVYMDgQ0/G26LZZdyqkUDafmNujtv4Euwl8MuL8SbB3EXnmXIBglpBic6pHdnzqmGGwvvdr8UiQln9gXDXP4m14od7h7+QYGPJj+g9icRpnBrAVKQDF4okOKwfbU7xc/aumX7x0aXs1rkqxSOXVG3Hn5IAb8H5XgrdYlwQTBKBHF4LIbYxL3hZN4Mtia+vV3dFL6RQkJfzOKe6/+xXwx4AsEwbG4zKyVGXUEwSghxeA1m5K6GNzVN/WbXcYxFA23mnTl0bGThL8Y8MWD4Cde1SY93j4oQcXgN/aEknNFpV36ffCZSIqHzaxo+JNAWcWyciPhLwb8r0FwNCbTanRMjSAYDXsxeHa97lw7eCTp1kTbpd8Pv2LhM0qUMorlyHHCXwz4v4LgLa/pDiOCYJSQYnCV5F8dj3b7uiPJUgzW2DfuPXHSP6laSzAcPVFCwt8NhL8YMJVgNLqtKO0aCty4Piri9QeS4qpB+67f8uWxnAo2oqPEVH+L5S+qvxjwJbRDMxOMEhYQjMmXbdv1zuCO0U5E+6y7fm/b1J1WqJ1ifHdQIpqfb3lI2LyBAQ81CO6dCa4hCEaJGYhs1NvIv90bVA8eve0cHVbj1eu7w2PyKf2ixKy+apJxpXLyLOEvBnwpQfCr77EYCyUsCG7VQdsZtdLh9UnMPyoNWfZ1C7/8Hsgq1eMmZ02UoNVXd24h/MWAL51F7TKlmhcTStS7KbtMam6OiXi7Rvyqhs5OvW4hGPDNa4xPqab0ixKi2Wx+xoAvA/uWyve/sIJgDBglrBicViD3PBEZ4e0cXp+/y7puoXldTxbXLaCE9RumFcimF6V/3z5gwJdGxQruCUaJ3c4xxiM7R3Y7h9dqvHrgmUhKAZ9tlKip9xl1evWvHfgS/mLAl1MJ/mG/pHnIQqMEvqfm1Et2qez/Q7dzdHhHZOpXvO9+Gkrx0HiFEhb+turJ8tX3hIuPMOAr4tp79AYPimQocYnoydUyrykeDPpiPYltyLLbng8eCYwv1zuaOFmiBB0rJy+RgmtwDwz4SoJgK21y4rRklcjcRp4rlMBwIatUGm/ta8hKTBzc6fNHe/yRkG9ha3xSFWdKlEADTvHIFz8Q/mLAw+HB67fqVTYLWVOAEtyQde+TiWrI8nr9Qavxqu32nsxiPswogZ/kcaXSvA73wICvGJZTopFsyErxyI7/JaQhy2682riNxiuUYDVqypDFkxjw8GA30O/4n4xZzEgSSmTirkXmNGgueu+BYW7Ishuvdn1I4xVK+OhReqHc+zTuiwEPN+XLJYeRJJTg9N3Uar21sHP4NmTZG6/2/RHILqXxCiV+9KhWolFGjzDg4R5J+vWQVulyedJQ4jdkVd8UE/GFQ1fakNXZ6Y/H9MqFuU3xyWy8Qgk9PrbKVfny5kfC5g0MOCHF4LWbJb2YzUEo8Q1ZhbL64e4rvLLQ67WuGhTv0lWx7FIKKCixH9oJ5VKzCq/AgBNmwN3dMn2prnchj4cS+zqzNmQ99Xr4ihqyrLbnWx+yrhrk1IgSqXnNklEkfx6j+osBJ7Ib640P5arFVIJR4t9oTRoHf/RV8PI82G68enp7eIwH90WJ1aI2SfXouCbuiwEnnNrVMr6cRDRKeFP0zHqZUCGH/rrkpmjbfT/+OphWqEa+gM5nlMjeq2k1+pNzk4WAASeqG+vYKclkNxYakbrapCpZ0BIPBnyxITdF223Ph44EJlSoheO+KNG9Vyn58un3wt4rDHiEisGPv6KfOdYJoYQ3RVtbKmtu0S2V4S6/z/ffsW8s5g/6ffNb4pPZN4kS37SfUSzL19svR/wBAx4pCq6xohOKwWhkm6K9/7ruym57rqHtGY1A8rlZUyyTq6UrTPIZAx7ZRLQ9FsxDiEakKTo+xiNbXg7/y6Zor98fsNqeVz1A2zMaqcHfxQz+YsAj78HWWW/DVkktIBGNRqgpOrVAdn960U3R9rbnzS9GtO25Nc5XDCU6+ZxVKm234wYY8ChVgkVk0TJNRDOVhEag13RWvWSXys/7tSm603uBtuc3P9Btz3yt0Agkn2fVy8Qq8QZIPmPAo5iIPqiJ6Hk8k2hEtnNMXaojH3+f8p8bB9vu+93PwcximdMQpy8BjUTyOV+XIpB8xoBHORG98VkdQicRjUamISunQvKvjkfCvliPNkXbQ0dHT/inVMv0GjVpvkpoBJLP7XfhABhwciSi7Y5oEtFoZAaTMkukbrXe1hDs8sd6/AG/L7clPpGhIzQipZCZtdr5HOwi+YwBJ0ci+uBRHYabx2oONIKDSSs2dot0ivgqV8Syyxg6QiOUfB6zWPZ8KazdwICTKBG9bacWRQhB0Ei9B+Nj8uXxV8K3PtKTWih5VEDQCGRf2iVdR9KFrRsYcNJRf5uMK2NHNBqpwaRmyamSyUu4oxqNUOw7pVo/dYMKcIABJ0UxuNOvffm6fZdkIBqpdyIfNjRiB760Avnld5LPGHASerD1idzzpRZIculERQiZ1XZwlZY8hAsHMeBk9WDrx9sfYyoJIWTU3FF2mdSt5h2PASd9ItqeSsphJgQhZMTc0fRabTXwBSn9YsBO6Ig++reMK5XZDdTnEELOVm6LjMmXz38cKLQBBpzsHvzmR3LVIu5CRwg5WIva9OLzB54j9sWAnVYMXrtJtyUsohiMEHJs6bfmlsElNsCAnVEMLrpBxldQDEYIOW/CbfpSvfyDlZMYsFM9+FSHTKzU1akUgxFCTpr6te6f/mG/MPWLATvYgz//XlsY5lMMRgg5Z+p3zGJ59g1h6hcDdrIHWyfHx17RGXZ25SOEHFD6tRY+L1/P+xsDNoVld+t1SWznQAgleeybU6GbDGi8woCNashavEy4sRUhlOQ7NyZWyKmzJJ8xYFOwP8cnTsv4cplRx3AwQigZ3Vcbrzzy7V59X0VxXwzYMA/+8if9fM9roikaIZRkBtwmVy2W53cR+2LA5uain3tLP+ULSEQjhJKp9JvqkXWbeU9jwKazbrOkeCgGI4SSo+25VTJLpHY1jVcYsDsashrXWE3RJKIRQqPe9mw1h9rbNkg+Y8DmF4Mlrk3ROWypRAiNovu26L7JiVVy8oyw8QoDdocHW5/yM50ypVpXrebRFI0QGo225zkNMrZIfj5A7IsBuyoXbXnwb39KdonMqqcpGiE04mrSLbnvfU7siwG7NRf98bfakMVgEkJoRMPfFh3H2LZzIB4ADNhlcbD148vvyFWL2M6BEBq5xquUfLn3Kd7BGDCIbHrJGg7GgxFCiR46atN7Bm+4vy8MoPSLAbs3CO779K97TM+kC2mKRgglTIvadACy/jbcFwOG85+B6++VtAI8GCGUmNi3XbJLpfRG3BcDhgt5cMManQpYhAcjhIZ73ZW9eCDSLbQ9Y8BwYQ+uWKFr4fK4ORghNHx134lVMqtBOv24LwYMF8J+KuJxvQ17fJnmi3hxIISuvOd5arWu/TlxWhg6woDhPzw4GNKO6JwKPBghdGXu2yLTlkpOuRw8Jqy7woBhSB7c6dUtcTlV9GQhhC7ffafXauPVvkO4LwYMQ6wHWx58qkNm1mrlBg9GCF2y+7bKjFrJKulb9UzmGQOGS+rJOnFKptfI5CVcmoQQumT3zSyW73/FfTFguIxctOXBx07qjUl4MEJo6O47q1YXbnz7C+6LAcOVefDRv/XOzsnkohFCQ4t9M4rl6724LwYMw+LBJzUXTT0YIfTvXVd25pnYFwOGYc5Fz6jDgxFCF533nV6ra3y+24f7YsAw3B789xmZ3SATK3SrHK8bhNC57jttqYwrlR9/w30xYEiMB5/p1IeNPVkIoUG7riZUyK8HcV8MGBJD1Hqu/EHJX6bD9dzZgBBa2CaTqnRQ4o8juC8GDIn34EiP3imWUYwHI+Ru923XnbUz6+Svv4VdVxgwJD4X3XfCXbpK0guZD0bIrZnndskuk9xWOd2J+2LAMOIe3HanpHrwYIRcp0VtOm5UfL10hQZyY4ABw4h4cN9p9+aH5Kp8vT2JVxJC7um6Si/UHNi5lSnAgGHkiPd58IZtctVimd8kCxhPQsh0LWiTlHy55p7B+TDAgGF0PHjbGzImX28wJBRGyFjrbZX5LTJmsdzx+OBMGGDAMJoe/M6nMrZIV+FQEkbISPed26juu+X1wc8+YMAwqjZs/fjDfsmplElLWJWFkGlF3xm1klYgO/fgvhgwJB92MuqvEzKviTUdCJm2aiOnQr7dy3sOA4ak9eCo/hiKSMUKRoQRMiT2zS6VeY1y5DhFXwwYktyD+1oil6/Xtqz5LbRlIeRg9031yJKbJRQeOGEDBgzJnosWkc0vS4pHZjUQCiPk1IbnVQ8NPlsDBgxJzUBr9CeSXSKTq7lFGCEnBb6z6iU1X554bfCpGjBgcIgNW0fm/X/qw5xdShyMkBNartq15Wp8mXzwzeDzNGDA4Lx0dFdIlt6i6egFLWzLQiipY9+MYv3xT6vlCufFgMHZ9O+JvWtL77asPNqyEEq+om9us+6YbLuz13hJO2PAYFRJeMceybJLwu288hBKosB3Zq2MKZBHXujLXdFyhQGDSR5su/CBw/rA22kuXnwIjb77tsv4cq37fvIdRV8MGEwvCcdisuxuvcRwXpPkURJGaPTSzgtadNK37EY5eRbrxYDBeA/uS209uV3SCmUqE0oIjVbauV7bMrjaCAMGN5aEf/xNZjeQjkZoNNLOFXp1yjuf4r4YMLg1HR3pkWV3ScpimdOIDSM0It3OLZLmkfLlcuIURV8MGNxK/4TSs29KVqm2gdAdjVACl2y0yfQaXXF139MEvoABk47ue/5/Pyyea/TCUZZ1IJSIwDevVTJLZEadfPY97gsYMMjgF8EdWyS1QA/pdGYhNIz9VrPr5arFWu4JReTcsUDAgAEGuqM/+U53R2tnViuhMELD4L7jymVChbz63uDSD2DAAAPp6HhfZ9by9boVb2YdoTBCl2+9cxt10Khmlfx9ZnDRBwADhsH0H8/f/VSmVRMKI3TpFV9r0GhChWSXydadfU8W1gsYMAwlFLYJdMm19+gRfnotoTBCQw1851iB75Kb5PDxvhIP7gsYMFxGKLz7c23dzCiUXEJhhP6r1Xlcqe523rYT6wUMGIYjFA5F5KYHtEF6CjcpIXSRGd+Zddo50bBGTpzGfQEDhmENhb/4QRa0qQ3PY20WQv05Z+sq34ximbpUdn7Q99RgvYABw7CFwn0vlI3P6tqsceXqwWSkkcubrRa2a1oozSOrHpSuMIEvYMCQGPpnhf/4S2pu0WzbDJqzkItzzrMb9CnwXC1f/Tw4XQSAAcPwh8L9heE3P9L9PumFvZ2fvJGRi3LOrZJVrNcZPbm9/9lgxhcwYBiBUDja+5OeHrn36d6M9AJ6pJEL+pwXtsrESr1Le/kG6fANTg4BYMAwEvRn2w4dk5Z1kuKRydX6esKGkZk553aZUSNjPFJ2o3z3y8BTQNwLGDCMckb642/1PqUx+To0zKgSMqzcO6dR+//nNsqOPeScAQOG5AmFz3kNvfiOzKzVaw3nNNCfhUxYazW/WTKKtNz78AsDqWZyzoABQxLR/0rq6ZEHn9MXVkaxzG2iPws51XoXNOtaq4xiufWRgXIvfc6AAUNSZqTPeT11+GTtZl1Gn1VKmzRymvW2yoRySSvSXegHj/V9vGPknAEDhiS34bi+qmyO/a3NomOLLBtuwYaRE6y3UhdrNK6VvQfO+UhjvYABg5NsuO+d9fsRjSQyCiWbaBglsfVOrNROq7rV8vXegaQOa60AAwZHEjvHhn/707Lhot6kNC1aKFmst8VKOHuk7hb54seBT280yhMMGDAYYMN9Pz/wp1x/v3qw3aK10Gp1wQbQ6HQ4t+gOmfQCabhtYJ0k1gsYMJhsw4ePy+qHZUKFbrK0B5ZY34FGbptVm8xrksxiySySZXfJT79hvYABgws4d2j4TKfc97R1mUyBTLfudcjDhlGCrXeWtcB8fJmsekAOHcV6AQMG99lwf6d0sEue2q43qqbky8QqLcjRpYWGPduc16b39aZ4ZHqNbNgmJ89ivYABg4uJx8/bKPTWx7LkJo2Gs0o1Q0heGl15yLuoTeY3yfhySfVIwTXywi4Jd/d9/M7PxwBgwOBGGz53u9DeA7Jygy7S0rz00t7YBS9Bl3pj4MI2mWllmzOLpfV2+eS7gc9YjJUagAEDnGfD52QCO3yy5VW91CG1QMt185o0lCEgRkMJeXNb9ACX6pFZddpkcOzkwOeqB+sFDBjgYkSj593v9sl32qc6rkwD4ql9ATFOjC5Y5Z1eqyFvRrHU3qIVjXN3aFDoBQwYYKgBcc85eelTZ+Wp17SGl1agGcVZ9VbLNKlpfLe1967A7DINeXObZeOzOuR2braZQi9gwACXbsP/CFx++E1u26Q3HmpqulzfvItwYlf67iJrltdONU9eottdPvn2H6kUrBcwYIDhDYijUdn9uVxzt0yq0vdvTkVvkRgndoPv5jbr9z2tQKPe+lvltfclECTkBQwYIMFEo+dNLnkDsv19aVzTGwnlVMjcvpiYOrFJ9V2Nd/t8N6tMlqyUbW/I32f+EfLyhAAGDJDogHhQavqsV157T1rW6SqPNI82Ts+u731x48QO7We2v31zG/VcZVccqm+WbTvl6N//8F2MFzBggFF3Yq9f3vxIrrvXqhN79PKlaTU6l9IbFuNtTkgy57XIjFrJLpHUfK3vNq2VF9+Rv0/ju4ABAzjBiaNRvVruri2yeJmMLdLUZU7FQFjM0ulkG97Ns4LdSVU6RzS2SBPOtzwk739xXn1XB3mjlHgBAwZIYiceFBsdOqolw6Z1Gg2nFugrflK1vu4x49E13UVW09yUahlbrOmKSZWydJU89ors+33wt5V4FzBgAIc58bkdWyLS3a3Xvj7wrFSulIkVupp/bNH5ZkzNOHE13daBTvUp1ZJZoqY7vkyKrpO7npSPvhkc7Go/M74LGDCAo4naCerzX+Vev67ZWr9VKldooTHNiownVMjMut6asR0c48eXp9y+6//sPrjZ9ZJjpZdTPNqyXnyd3P6Y7P5scCeznWSO4buAAQMYGRZHY4P/ebBLvt0rj72sW/vnNuguw97guEq3bvXnS4mPhxLj2geX2Q0DYW5Gkcyok7rVmnv45Ds52zn460+wCxgwgOvMOHahFcF/HpNdH8vdT8qSVbrQP7Oo149zKrQ7t38y1c2WPGC37b1Z5Zl1GuOOLVLHHVuoi7vLl8vazfL6+3Lg8MD1z5guAAYM8I/I+EJ+EI/JH0fl7U9lwzPSvE6z0+PLJa1Qm7lsS55WoyXk3nRr+4Arm2HMC1rO81o7nzy3USPaiVUa4KYVqONmW1c4163WU8uO/8n+Q1pu/yeklwEwYIB/NeO4+sTF7s8545Xv98kru9VsmtbKomVaQrYjP70rosRy5WrNXc9vPseY+7zZrisnjz3bFmsvvjjvr2r9DWc36Akjp1L/u7SCm6/R7cQqPYjUrpZ1m+W5t+Trn+XE6Qt/rWIxIl0ADBjgiv34Yi4S7JLf/9I+3q075M7HNVAuvFZTshPK1a5SPb2zT5kl2uQ1uVotbVaDxpH26om8fts7Rwvbem98ymsd8Owhyv4ttqEuvNAf3nsOaNa/w+wGDWenVOvfLaukd2Za/8LWTczTayX/amm4VdY8qjc0v/+F7P9T+9cuht15juMCYMAAw+/H/QNO/2kzpzrUrj79Vl5+Vx55UQui7XdIxQo1xZl12uGlhleohpeS3xtA22soMks0qTuuTE1xYpX+yinVMtVy7nM1vWbwP5larb9ycpX+rpwKGVeuf06mZavphb2Z89R8/T+yg/WJVVrVXtAqpTdI6zpZ/Yg89Jy8uEs+/Fr2HdQW5di//gee+3XAcQEwYICRteRzZo4vKfgLBOXYSS2XfverfPC17NgjW99Qn97wjI7o3PSgLtRsWSd1t8qSm6RsuY7ueK6R/GWyuF1lJ4oXtfX+z/xl+m+LrlMrrbpJ88PN6+Tae2TlRk0Ur98mDz8vT23Xlqj3v5BvflF/PXJCOv2DR6Uv9t8Yi+qFVNgtAAYM4KRYORaz3Cu5E7Px+IDLnmu0WC0ABgxgVNDcX10ecOhzf2ItPb4Swz73BND/hw+o78/HYgEwYAAYsn//QwCAAQMAAAAGDAAAgAEDAAAABgwAAIABAwAAYMAAAACAAQMAAGDAAAAAgAEDAABgwAAAAIABAwAAYMAAAACAAQMAAGDAAAAAGDAAAABgwAAAABgwAAAAYMAAAAAYMAAAAGDAAAAAGDAAAABgwAAAABgwAAAABgwAAAAYMAAAAAYMAAAAGDAAAAAGDAAAABgwAAAABgwAAAAYMAAAAAYMAACAAQMAAAAGDAAAgAEDAAAABgwAAIABAwAAAAYMAACAAQMAAAAGDAAAgAEDAABgwAAAAIABAwAAYMAAAACAAQMAAGDAAAAAgAEDAABgwAAAAIABAwAAYMAAAAAYMAAAAGDAAAAAGDAAAABgwAAAABgwAAAAYMAAAAAYMAAAAGDAAAAAGDAAAAAGDAAAABgwAAAABgwAAADDzf8H7qpfVrkqf/sAAAAASUVORK5CYII=" vertex="1" parent="1">
          <mxGeometry x="40" y="280" width="40" height="40" as="geometry" />
        </mxCell>
      </root>
    </mxGraphModel>
  </diagram>
</mxfile>
